<svg version="1.1" xmlns="http://www.w3.org/2000/svg" xmlns:xlink="http://www.w3.org/1999/xlink" x="0px" y="0px" width="409.735px" height="409.734px" viewBox="0 0 409.735 409.734" style="enable-background: new 0 0 409.735 409.734" xml:space="preserve">
	<g>
		<path
			d="M323.815,396.576c-16.523-41.616-33.66-82.008-52.02-123.012c5.508,0,10.404-0.612,15.912-1.836
		c5.508-0.612,16.523-1.225,18.972-7.345c0-0.611,0.612-1.224,0.612-1.836c0-0.611,0-1.224,0-1.836l0,0l0,0
		c-17.137-42.84-31.212-86.292-39.78-131.58c17.748-1.836,36.108-1.224,53.856-4.896c7.955-1.224,4.283-13.464-3.061-12.24
		c-0.612,0-0.612,0-1.224,0c-10.404-20.808-25.704-37.944-42.229-53.856c-9.18-9.18-18.359-18.36-26.928-28.152
		c-5.508-6.12-10.404-13.464-15.912-20.196c1.224-3.06,0-6.732-3.672-7.344C215.491,0,203.252-0.612,190.4,0.612
		c-0.612,0-1.836,0.612-2.448,0.612c-1.836-0.612-3.06,0-4.896,0.612c-39.168,28.764-76.5,60.588-100.98,102.816
		c-2.448,3.672,0.612,7.344,3.672,7.956c0,0.612,0.612,1.224,1.224,1.836c4.896,5.508,11.016,10.404,16.524,14.688
		c1.224,1.224,3.06,2.448,4.284,3.672c-1.224,1.836,0,4.284,2.448,4.284c6.12,0.612,12.852,0.612,18.972,0c1.224,0,1.836,0,3.06,0
		c1.224,3.672,3.06,7.344,4.284,9.792c5.508,14.688,12.852,28.764,22.644,41.616c-17.748-3.672-40.392,2.448-56.916,4.896
		c-3.06,0.612-6.12,4.284-5.508,7.344c3.672,53.244,13.464,106.488,29.376,157.896c0.612,1.836,1.836,3.061,2.448,3.061
		c-1.836,0.611-3.672,1.224-5.508,2.447c-1.836,1.225-1.836,4.284,0,5.509c0.612,0.611,1.836,0.611,2.448,1.224
		c-0.612,6.732,9.792,12.852,14.076,16.524c3.06,3.06,6.732,5.508,9.792,8.567c1.836,1.836,3.672,3.672,6.12,4.896
		c0.612,0.611,1.224,0.611,1.836,0.611c52.631,12.24,111.383,8.568,164.627,3.673c1.836,2.447,6.12,1.224,6.12-1.837
		C329.323,402.084,328.099,397.188,323.815,396.576z M126.752,130.968c-1.836,0.612-3.672,0.612-4.896,0.612
		c0-0.612,0-1.224-0.612-1.836c-2.448-4.284-7.344-6.12-11.628-8.568c-2.448-1.836-4.284-3.06-6.732-4.896c1.224,0,1.836,0,3.06,0
		c6.732-0.612,14.076-0.612,20.808-1.836c0,4.896,1.224,10.404,2.448,15.912C128.588,130.356,127.364,130.356,126.752,130.968z
		 M134.708,361.692c1.224-1.225,1.224-2.448,1.224-4.896c-7.956-37.943-15.3-75.275-20.196-113.832
		c-0.612-6.731-1.836-14.076-2.448-20.808c-1.836-15.912-1.836-14.076,15.912-15.912c12.852-1.836,26.316,0,39.168-2.448
		c1.836-0.612,3.06-1.836,3.672-3.672c3.06-1.224,4.896-5.508,1.836-8.568c-12.852-14.688-19.584-33.048-25.704-51.408
		c-3.06-10.404-3.672-27.54-10.404-35.496c-1.836-2.448-4.896-1.836-6.732-0.612c-7.344-1.836-15.912-1.836-23.256-2.448
		c-2.448,0-5.508-0.612-7.956-0.612c23.868-32.436,53.856-58.14,86.292-82.62c18.36,27.54,40.392,50.796,65.483,72.216
		c-1.224,0-3.06,0.612-4.284,0.612c-10.403,1.224-20.808,2.448-31.212,4.896c-3.06,0.612-4.284,2.448-4.284,4.896
		c-1.224,1.224-1.836,2.448-1.224,4.284c3.672,45.288,33.048,83.232,36.108,128.52c-12.853,0-25.704,1.836-38.557,0.612
		c-6.731-0.612-9.179,6.731-6.731,11.628c18.359,40.392,32.436,86.292,63.036,118.728c-26.929-0.611-53.244-1.224-80.172-1.836
		C168.979,362.304,150.008,358.632,134.708,361.692z M161.024,393.516c-2.448-4.896-8.568-9.18-12.24-12.239
		c-1.836-1.836-4.284-3.672-6.12-4.896c14.076,1.225,29.376,0,41.004,0c28.763,1.225,58.139,1.836,86.903,1.836
		c2.448,0,4.284-1.224,5.509-3.06c3.672,0.612,7.344-2.448,4.896-6.12c-26.928-36.72-43.452-77.724-61.2-119.34
		c11.628,0,22.645-1.836,34.272-0.612c4.284,0.612,7.956-3.672,7.956-7.956c0.611-47.736-28.152-88.74-36.72-134.64
		c8.567-0.612,17.136-1.224,25.092-1.836c7.956-0.612,18.972,0.612,24.479-5.508c3.061-3.672,1.225-7.956-2.448-9.792
		c-0.611,0-0.611,0-1.224,0c-29.376-22.644-54.468-48.348-74.664-78.948c7.956,0.612,15.299,1.224,23.255,3.06
		c4.284,17.748,24.48,34.272,36.108,45.9c17.748,18.36,36.72,35.496,53.244,55.08c-14.688,2.448-29.988,3.06-44.676,5.508
		c-4.284-3.06-11.629,0.612-10.404,7.344c6.731,45.288,20.808,89.964,42.84,130.356c-2.448,0.611-5.508,1.836-7.956,2.448
		c-8.568,1.836-16.524,3.06-25.092,3.06c-3.672,0-5.508,3.06-5.508,5.508c-1.225,1.836-1.836,4.284-0.612,6.732
		c18.36,40.392,36.72,81.396,57.528,120.563C263.839,393.516,212.431,399.636,161.024,393.516z" />
	</g>
</svg>
