<svg version="1.1" xmlns="http://www.w3.org/2000/svg" xmlns:xlink="http://www.w3.org/1999/xlink" x="0px" y="0px" width="359.978px" height="359.978px" viewBox="0 0 359.978 359.978" style="enable-background: new 0 0 359.978 359.978" xml:space="preserve">
	<g>
		<g>
			<path
				d="M331.38,87.815c-1.224-6.12-11.628-6.732-12.853,0c-12.852,82.008-55.691,160.343-104.651,227.051
			c-5.508,7.344-101.592-105.876-108.936-115.668c-28.152-34.883-59.364-80.171-100.98-99.144c-2.448-1.224-5.508,1.836-3.06,4.284
			c37.944,37.332,71.604,75.276,104.652,118.115c31.212,41.004,63.648,80.784,105.875,111.384c2.448,1.836,7.344,1.225,9.18-1.224
			c29.376-36.72,52.633-78.336,73.44-120.564C309.96,178.391,339.948,126.371,331.38,87.815z" />
			<path
				d="M298.332,81.695c-34.272,55.692-52.632,119.952-91.8,171.971c-37.944-39.168-68.544-84.456-107.712-121.787
			c-11.016-10.404-22.032-19.584-33.048-29.376c-4.284-3.672-20.196-24.479-26.316-24.479c0.612,0,1.224-1.224,0-1.224
			c-15.3-3.06,25.704,41.004,27.54,42.228c48.348,47.124,87.516,102.815,134.64,151.164c2.448,2.447,7.956,3.06,10.404,0
			c44.063-54.469,63.036-122.4,99.144-181.152C316.08,81.083,303.228,73.739,298.332,81.695z" />
			<path
				d="M354.636,84.755c-3.672-18.36-7.344-36.108-11.016-54.468c-0.612-3.672-5.509-6.12-8.568-4.896
			c-26.316,9.18-53.244,22.644-75.276,40.392c-4.284,3.672,1.225,11.016,6.12,7.956c20.196-14.688,42.229-23.868,65.484-31.212
			c2.448,14.076,5.508,28.764,7.956,42.84c2.448,11.628,2.448,25.704,8.567,36.72c3.061,6.12,11.017,2.448,11.629-3.06
			C361.368,107.399,357.084,95.159,354.636,84.755z" />
		</g>
	</g>
</svg>
