<svg version="1.1" xmlns="http://www.w3.org/2000/svg" xmlns:xlink="http://www.w3.org/1999/xlink" x="0px" y="0px" width="351.46px" height="351.46px" viewBox="0 0 351.46 351.46" style="enable-background: new 0 0 351.46 351.46" xml:space="preserve">
	<g>
		<path
			d="M272.769,319.501c189.107-98.531,0.611-381.888-179.317-306c-166.464,70.38-93.636,348.839,85.68,330.48
		c6.732-0.611,6.732-10.404,0-11.016c-76.5-1.836-136.476-45.9-157.284-121.176C2.875,145.082,24.295,69.806,86.107,34.31
		c163.404-93.024,359.856,182.375,174.421,272.952c-0.612-1.223-1.225-1.836-2.448-3.059c-2.448-3.061-4.896-3.672-7.344-4.285
		c0.611-1.223,1.836-2.447,2.447-3.672c5.509-9.18-8.567-17.137-14.075-7.955c-11.628,17.135-25.704,32.436-38.557,48.348
		c-4.283,5.508-1.836,14.076,5.508,14.076c22.032,0,43.452-3.061,65.484-7.344c4.896-0.613,7.344-7.957,4.896-11.629
		c-1.836-3.061-3.672-6.119-5.509-9.18C271.544,321.951,272.156,320.726,272.769,319.501z M244.616,309.097
		c0.612,1.836,1.224,3.061,2.448,4.896c3.06,5.508,6.12,11.016,9.18,15.912c-10.404,1.836-21.42,3.061-31.824,3.672
		C231.764,325.623,238.496,317.666,244.616,309.097z" />
	</g>
</svg>
