<svg version="1.1" xmlns="http://www.w3.org/2000/svg" xmlns:xlink="http://www.w3.org/1999/xlink" x="0px" y="0px" width="387.631px" height="387.631px" viewBox="0 0 387.631 387.631" style="enable-background: new 0 0 387.631 387.631" xml:space="preserve">
	<g>
		<g>
			<path
				d="M161.57,14.096c-53.244-3.673-105.264-6.12-118.116,56.304c-8.568,42.84-7.344,89.352-10.404,132.804
			c-3.06,50.796-5.508,102.816,6.12,152.389c0.612,3.672,4.284,6.12,7.956,6.12c32.436,0,65.484,1.224,97.92-0.612
			c9.18-0.612,9.18-14.076,0-14.688c-25.092-1.224-50.796-0.611-75.888-0.611c-12.852,0-15.3,1.836-17.748-10.404
			c-2.448-14.076-3.672-28.764-4.284-42.84c-2.448-48.96,2.448-99.145,6.12-148.104c2.448-31.212-3.06-78.948,20.196-104.04
			c18.36-20.196,63.648-15.3,88.128-17.136C167.69,23.275,167.69,14.707,161.57,14.096z" />
			<path
				d="M344.558,43.472c0-3.061-2.448-6.732-5.509-7.345c-31.823-7.344-63.647-8.567-96.084-4.283
			c-9.792,1.224-9.792,16.523,0,15.3c17.137-2.448,33.66-3.061,50.796-2.448c7.345,0,35.496-1.224,35.496,7.956
			c0,9.792,0.612,18.972,1.225,28.152c1.836,37.332,5.508,74.663,8.567,111.995c2.448,36.721,3.673,74.053,1.225,110.772
			c-0.612,11.628-2.448,23.256-4.284,34.884c-1.224,6.732-20.808,3.672-24.48,3.672c-20.195,0-40.392-0.611-59.976-2.447
			c-5.508-0.612-6.732,9.18-1.224,9.792c29.987,4.896,60.588,6.12,91.188,6.12c3.061,0,6.12-2.448,6.732-5.509
			C369.65,249.716,345.782,145.675,344.558,43.472z" />
			<path
				d="M255.818,0.02c-22.645-0.612-50.185,13.464-69.156,24.479c-4.284,2.448-4.896,8.568-1.836,11.628
			c14.076,13.464,29.375,28.765,47.124,36.108c6.732,3.06,11.628-5.508,5.508-9.792c-12.852-8.568-24.479-18.972-35.495-29.988
			c8.567-4.284,17.136-7.956,26.315-11.016c9.792-3.672,20.196-4.896,29.988-9.18C265.61,9.199,261.938,0.02,255.818,0.02z" />
			<path
				d="M217.261,353.756c-14.688-18.973-31.211-34.885-51.407-47.736c-8.568-5.508-16.524,7.956-7.956,13.464
			c16.524,10.404,29.988,22.644,42.227,37.332c-10.403,8.568-23.867,15.3-36.107,19.584c-6.732,2.448-4.284,12.852,3.06,11.016
			c17.748-4.283,30.6-16.523,47.124-23.256C217.874,362.323,219.709,356.815,217.261,353.756z" />
		</g>
	</g>
</svg>
