<svg version="1.1" xmlns="http://www.w3.org/2000/svg" xmlns:xlink="http://www.w3.org/1999/xlink" x="0px" y="0px" width="359.644px" height="359.644px" viewBox="0 0 359.644 359.644" style="enable-background: new 0 0 359.644 359.644" xml:space="preserve">
	<g>
		<g>
			<path
				d="M59.322,345.567c-4.896-6.119-3.06-11.628-2.448-18.972c0.612-3.06-3.06-6.12-5.508-3.06
			c-6.732,7.344-3.672,20.808,3.06,26.928C57.486,353.523,61.77,349.24,59.322,345.567z" />
			<path
				d="M55.65,259.276c-0.612-2.448-3.672-2.448-4.896,0c-3.06,8.567-0.612,20.195,0,29.375c0,3.061,4.896,3.061,4.896,0
			C56.262,279.472,58.71,267.231,55.65,259.276z" />
			<path
				d="M55.65,214.6c-1.224-4.284-1.836-9.18-1.836-13.464c0-4.896,1.836-9.18,1.836-14.076c0-2.447-3.06-3.06-4.284-1.224
			c-5.508,8.568-3.672,20.808,0,29.988C51.978,218.884,56.262,217.66,55.65,214.6z" />
			<path
				d="M57.486,134.428c-6.12,6.732-6.732,18.36-6.12,27.54c0,2.448,3.672,2.448,3.672,0c0.612-4.896,1.836-9.18,3.672-14.076
			c1.224-3.672,3.06-6.732,3.672-10.404C62.994,134.428,59.934,131.98,57.486,134.428z" />
			<path
				d="M77.682,58.54c-11.016,7.956-13.464,21.42-10.404,34.272c0.612,2.448,4.284,1.224,3.672-1.224
			c-1.224-6.12-1.224-11.628,1.224-17.136c1.836-4.284,5.508-8.568,7.956-12.24C81.966,59.764,79.518,56.704,77.682,58.54z" />
			<path
				d="M126.03,7.132c-4.896-0.612-11.016,3.672-14.688,6.732c-4.896,3.672-9.18,8.568-12.24,14.076
			c-1.224,1.836,1.836,3.672,3.06,1.836c3.672-4.284,7.956-7.956,12.852-11.016c4.284-2.448,9.18-3.672,12.852-6.732
			C129.702,10.192,128.478,7.132,126.03,7.132z" />
			<path
				d="M199.47,1.012C195.186-0.824,190.29,0.4,185.394,0.4c-4.896,0-10.404,0.612-15.3,0.612c-2.448,0-2.448,4.284,0,4.284
			c4.896,0,10.404,0.612,15.3,0.612c4.284,0,9.18,1.224,14.076-0.612C201.917,5.296,201.917,2.236,199.47,1.012z" />
			<path
				d="M255.774,37.732c-1.836-4.284-6.12-7.344-9.792-10.404c-4.284-3.06-9.18-5.508-14.076-6.732
			c-2.448-0.612-3.672,3.06-1.836,3.672c4.284,1.836,8.568,4.896,12.24,7.956c3.06,3.06,6.12,7.344,10.404,9.18
			C253.938,42.016,256.386,39.568,255.774,37.732z" />
			<path
				d="M268.014,75.676c-1.225-3.672-6.12-1.836-5.508,1.224c2.447,9.18,1.224,18.972,3.06,28.764c0.612,3.06,4.896,3.06,5.508,0
			C272.91,95.26,271.686,84.856,268.014,75.676z" />
			<path
				d="M277.194,160.744c-1.224-7.344-1.836-14.688-3.672-21.42c-0.612-1.836-3.672-1.836-4.284,0
			c-2.448,11.016-0.612,25.704,2.448,36.108c0.612,2.448,4.284,2.448,4.896,0C278.417,170.536,278.417,165.64,277.194,160.744z" />
			<path
				d="M275.358,228.676c0-6.731-0.612-12.852-1.224-19.584c0-2.448-3.673-2.448-4.284,0c-0.612,6.12-1.225,11.628-1.225,17.136
			c0,6.12-1.224,12.24,0.612,18.36c1.224,3.06,4.896,3.06,6.12,0C275.97,239.691,275.358,234.184,275.358,228.676z" />
			<path
				d="M269.238,275.188c-1.836,4.896-3.06,9.792-3.672,15.301c-0.612,5.508-1.836,12.239,0,17.748
			c1.224,3.06,4.896,3.06,5.508,0c1.836-4.896,0.612-10.404,0.612-15.912c0-5.509,0.612-11.017,1.836-15.912
			C274.746,273.352,270.461,272.128,269.238,275.188z" />
			<path
				d="M301.062,300.892c-8.568,15.3-15.912,31.824-26.928,45.288c-9.792-7.956-19.584-14.688-27.54-25.704
			c-3.672-4.896-8.568,0-7.956,3.061l0,0l0,0c0,0.611,0,0.611,0.611,1.224c4.284,15.3,20.196,22.645,31.212,33.048
			c2.448,2.448,6.12,2.448,8.568,0c14.076-14.688,23.868-33.048,32.437-52.02C314.526,300.28,304.734,294.16,301.062,300.892z" />
		</g>
	</g>
</svg>
