<svg version="1.1" xmlns="http://www.w3.org/2000/svg" xmlns:xlink="http://www.w3.org/1999/xlink" x="0px" y="0px" width="370.505px" height="370.505px" viewBox="0 0 370.505 370.505" style="enable-background: new 0 0 370.505 370.505" xml:space="preserve">
	<g>
		<path
			d="M360.102,296.508c-2.448,0.612-4.896,0.612-7.345,1.224c-17.748-79.56,7.345-167.076-28.151-243.576
		C292.781-15,212.609,0.299,183.232,63.335c-34.884,75.888,3.673,184.825-59.364,247.249C72.46,361.38,51.653,236.531,46.756,208.38
		c-4.896-29.376-9.792-61.201-11.016-93.025c11.016-7.344,21.42-15.3,28.152-26.928c4.284-7.344-7.344-14.076-11.628-6.732
		c-4.284,7.344-9.792,12.852-16.524,17.748c0-11.016,0.612-22.644,2.448-33.048c3.06-3.672,6.732-7.344,10.404-10.404
		c4.896-4.896,12.24-10.404,12.24-17.748c0-3.672-3.672-6.12-6.732-5.508c-3.672,1.224-7.344,4.284-9.792,7.956
		c1.224-3.672,2.448-7.344,3.672-10.404c1.836-4.896-6.12-8.568-8.568-3.672c-4.284,9.792-7.956,20.196-10.404,31.212
		c-0.612,0.612-1.224,1.224-1.836,1.836c-3.06-3.672-6.12-7.956-8.568-12.24c-2.448-4.284-4.284-11.016-7.956-14.076
		c-1.224-1.224-3.06-1.224-4.284,0.612c-3.672,4.896-0.612,11.628,1.836,16.524c3.672,8.568,8.568,16.524,14.688,23.868
		c0.612,0.612,1.836,1.224,3.06,1.836c-1.224,8.568-1.836,16.524-1.836,25.092C17.38,95.771,10.037,90.263,4.529,84.143
		c-1.836-2.448-5.508,0.612-4.284,3.06c6.732,11.016,14.688,19.584,22.032,30.6c0.612,0.612,1.224,1.836,2.448,1.836
		c0.612,18.972,2.448,37.944,4.896,56.304c5.508,45.901,9.792,102.817,38.556,140.761c15.912,20.808,43.452,24.479,63.648,7.344
		c31.824-26.928,41.616-70.992,44.064-110.772c2.448-44.676,3.06-89.964,17.137-132.804c14.688-45.288,74.052-86.292,110.771-37.332
		c24.48,32.436,25.704,82.62,27.54,121.788c2.448,44.676-1.836,90.577,7.344,134.64c-6.12,0.612-12.239,1.225-17.748,3.061
		c-4.896,1.836-4.283,9.792,1.225,9.18l0,0c0,1.836,0.611,3.672,0.611,4.284c1.225,4.284,1.837,8.567,3.061,12.24
		c2.448,9.18,4.896,18.972,7.956,28.151c1.836,4.896,8.568,7.344,12.852,3.061c14.688-15.301,23.256-34.885,23.868-55.692
		C368.669,298.344,364.385,295.284,360.102,296.508z" />
	</g>
</svg>
