<svg version="1.1" xmlns="http://www.w3.org/2000/svg" xmlns:xlink="http://www.w3.org/1999/xlink" x="0px" y="0px" width="414.011px" height="414.011px" viewBox="0 0 414.011 414.011" style="enable-background: new 0 0 414.011 414.011" xml:space="preserve">
	<g>
		<path
			d="M338.558,312.748c-4.896-3.672-12.853-1.224-18.36-0.612c-8.568,1.225-17.748,2.448-26.316,3.672
		c1.225-1.224,2.448-3.06,2.448-4.896c2.448-58.14,6.732-116.892,0.612-175.032c-4.284-41.616-18.973-94.248-55.692-119.34
		c-39.167-26.316-83.843-19.584-119.951,8.568C82.13,55.097,79.07,102.833,74.174,148.732c0,1.224,0,1.836,0.612,2.448
		c-3.06,3.672-1.224,9.792,4.284,9.792c9.792,0.612,20.196,0.612,29.988,0.612c6.12,0,13.464-0.612,18.972-4.284
		c2.448,0.612,5.508-0.612,6.732-4.284c6.732-20.196,7.344-42.228,15.912-61.812c15.3-34.272,50.796-18.36,64.871,4.284
		c7.344,11.628,9.792,28.152,12.853,41.616c11.016,57.528,0,119.34-0.612,177.479c0,0.612,0,0.612,0,1.224c-0.612,0-0.612,0-1.224,0
		c-8.568,1.837-17.748,1.837-26.928,1.837c-6.12,0-15.3-2.448-20.808,1.224c-3.672,2.448-4.284,7.956-1.224,11.016
		c-1.224,1.836-2.448,3.672-1.836,6.12c9.792,25.704,41.615,68.544,69.768,76.5c44.063,12.24,77.112-53.244,91.188-83.231
		c1.225-1.836,1.225-4.284,0-6.12c0,0,0.612,0,0.612-0.612C342.229,319.48,341.005,314.584,338.558,312.748z M249.205,395.98
		c-23.868-10.404-45.899-42.229-59.363-64.261c4.896,0,9.792-1.224,13.464-1.224c9.18-0.612,18.359-1.836,27.539-4.284
		c3.061-0.611,4.284-3.06,3.673-5.508c3.672,0.612,7.955-1.836,8.567-6.732c0.612-43.451,4.896-86.903,4.284-129.743
		c-0.612-33.048-2.448-77.724-24.48-104.652c-16.523-19.584-44.063-33.048-66.707-13.464c-25.092,21.42-25.092,48.96-31.212,78.948
		c-6.12,0-12.24,1.224-17.748,1.836c-7.344,0.612-14.688,0.612-22.032,1.224c6.12-39.168,9.792-76.5,38.556-106.488
		c41.616-43.452,103.427-33.66,134.639,14.688c46.513,72.828,21.42,173.807,23.868,253.979c0,4.284,3.061,6.12,6.12,6.732
		c-2.448,2.448,0,7.956,3.672,7.956c9.181,1.224,18.36,0,27.54,0c1.225,0,2.448,0,3.672,0
		C309.793,350.692,280.417,409.444,249.205,395.98z" />
	</g>
</svg>
