<svg version="1.1" xmlns="http://www.w3.org/2000/svg" xmlns:xlink="http://www.w3.org/1999/xlink" x="0px" y="0px" width="398.949px" height="398.95px" viewBox="0 0 398.949 398.95" style="enable-background: new 0 0 398.949 398.95" xml:space="preserve">
	<g>
		<g>
			<path
				d="M143.843,390.246c-6.732-1.836-14.076,2.447-20.808,3.061c-3.672,0-3.672,5.508,0,5.508c3.06,0,6.12-0.611,9.18-1.225
			c3.672-0.611,7.956-1.223,11.016-2.447C146.291,394.529,146.903,391.47,143.843,390.246z" />
			<path
				d="M194.027,390.857c-8.568-1.836-18.972,0-27.54,0.613c-2.448,0-2.448,3.672,0,3.672c8.568,0.611,18.972,2.447,27.54,0.611
			C196.475,394.529,196.475,391.47,194.027,390.857z" />
			<path
				d="M246.659,390.246c-4.284,0-7.345,1.836-11.628,2.447c-4.896,1.225-9.792,1.225-15.301,1.225c-3.06,0-3.06,4.896,0,4.896
			c8.568,0,20.196,1.225,28.152-3.672C249.719,393.917,249.106,390.246,246.659,390.246z" />
			<path
				d="M285.215,387.185c-3.06-3.059-4.284-6.73-6.12-11.016c-1.224-3.061-1.836-6.119-4.284-8.568
			c-1.836-1.223-4.283-0.611-4.283,2.449c0,6.73,3.672,14.688,7.956,20.195c-0.612,0.611-1.225,0.611-2.448,0.611
			c-1.836,0-4.284-0.611-6.12-0.611c-4.284,0-4.284,6.119,0,6.732c7.344,0.611,12.24,2.447,16.523-4.896
			C287.051,390.246,286.438,388.41,285.215,387.185z" />
			<path
				d="M265.019,341.898c-1.224-3.061-1.836-6.121-3.06-9.18c-1.224-3.061-1.224-6.732-4.284-8.568
			c-1.836-1.225-4.284,0.611-4.284,2.447c0,3.061,1.836,6.121,3.061,8.568c1.224,3.061,2.447,6.121,4.284,9.18
			C262.571,347.406,266.243,344.958,265.019,341.898z" />
			<path
				d="M248.495,305.177c-1.225-3.672-3.061-6.732-3.672-10.404c-1.225-4.283-0.612-7.955-2.448-12.238
			c-1.224-2.449-4.896-3.061-5.508,0c-2.448,8.566,3.06,18.359,7.344,25.092C246.047,310.685,249.719,308.238,248.495,305.177z" />
			<path
				d="M273.587,277.025c-3.06-0.611-6.12,0-9.18-0.611c-3.672,0-7.345-1.225-11.017-2.447c-2.447-1.225-4.284,3.059-1.836,4.283
			c6.12,3.061,15.3,6.121,22.032,4.285C276.646,281.921,276.646,277.638,273.587,277.025z" />
			<path
				d="M306.022,280.085c-3.672,0-8.567,1.225-11.628-1.836c-2.447-1.836-6.12,1.225-3.672,3.672
			c3.672,3.672,9.792,4.896,15.3,4.896C310.307,286.818,310.919,279.474,306.022,280.085z" />
			<path
				d="M310.307,251.322c-1.224-3.672-2.448-7.957-6.12-9.793c-1.224-0.611-3.06,0-3.672,1.225
			c-0.611,3.061,0.612,4.896,2.448,7.957c1.836,3.672,3.672,7.955,4.284,12.852c0.611,3.061,4.896,3.061,4.896,0
			C312.143,259.277,311.531,254.994,310.307,251.322z" />
			<path
				d="M295.619,215.214c-1.836-3.672-3.672-7.957-4.896-11.629c-1.836-4.284-2.448-8.568-5.508-12.24
			c-1.836-1.836-4.896,0-4.896,1.836c0,4.284,2.447,8.568,4.283,12.851c1.836,4.285,4.284,7.957,6.12,12.24
			C292.559,221.333,296.843,218.886,295.619,215.214z" />
			<path
				d="M268.69,165.642c-1.836-3.672-3.06-7.956-3.672-11.628c-0.611-3.672-0.611-7.344-2.447-11.016
			c-1.225-3.06-4.896-3.06-6.12,0c-2.448,7.956,3.672,18.972,7.344,25.704C265.631,171.762,269.915,168.702,268.69,165.642z" />
			<path
				d="M245.435,108.726c-3.06-6.732-5.508-14.076-9.18-20.808c-2.448-4.896-9.18-0.612-6.732,4.284
			c3.061,6.732,7.345,12.852,11.017,19.584C242.375,114.846,246.659,112.397,245.435,108.726z" />
			<path
				d="M274.199,81.798c-2.448-1.836-5.509-1.224-8.568-1.224c-4.284,0-7.956,0.612-12.24,0.612c-3.06,0-3.06,4.284,0,4.284
			c3.672,0,7.345,0.612,11.017,0.612s7.344,0.612,10.403-1.224C275.423,84.857,275.423,82.41,274.199,81.798z" />
			<path
				d="M304.187,81.186c-3.06-1.836-7.956-0.612-11.628-0.612s-3.672,5.508,0,5.508s7.956,1.224,11.628-0.612
			C306.022,85.47,306.022,82.41,304.187,81.186z" />
			<path
				d="M125.483,352.302c-0.612-2.449-3.672-2.449-4.284,0c-1.836,3.672-0.612,8.568-0.612,12.24c0,4.895,0,9.791-1.836,14.688
			c-0.612,1.836,2.448,3.061,3.06,1.225c1.836-4.285,3.06-8.568,3.672-12.854C126.095,362.707,127.319,356.585,125.483,352.302z" />
			<path
				d="M125.483,329.046c-3.06-11.018-1.224-22.033-3.06-33.049c-0.612-2.447-4.896-2.447-5.508,0
			c-1.836,11.016,0,24.48,3.672,34.885C121.811,333.33,126.707,332.105,125.483,329.046z" />
			<path
				d="M126.095,248.875c-0.612-1.836-3.672-1.836-4.896,0c-1.224,3.059-0.612,6.119-0.612,9.18c0,4.283,0.612,7.955,0.612,12.24
			c0,3.059,4.896,3.059,4.896,0c0-3.672,0.612-7.346,0.612-11.018S127.319,251.933,126.095,248.875z" />
			<path
				d="M151.799,217.05c-8.568-4.285-18.972,0-27.54-3.672c-3.06-1.225-4.896,2.447-3.672,4.895
			c1.224,3.061,0.612,8.568,0.612,11.629c0,2.447,3.672,2.447,4.284,0c0-2.447,0-6.121,0-9.18c7.956,1.836,15.912,0,23.256,2.447
			C153.023,225.005,155.471,218.886,151.799,217.05z" />
			<path
				d="M190.355,221.333c-2.448-0.611-4.896,0-7.344-0.611c-3.06,0-6.12-1.225-8.568-2.449c-2.448-1.223-4.896,2.449-2.448,3.672
			c5.508,2.449,12.24,5.51,18.36,3.674C192.803,225.005,192.803,221.945,190.355,221.333z" />
			<path
				d="M222.179,220.109c-1.836,0-3.672,0-5.508,0c-0.612,0-1.224,0-1.836,0.613c-0.612,0-1.224,0-1.836,0
			c-3.672,0-3.672,5.508,0,6.119c0.612,0,1.224,0,1.836,0s1.224,0.613,1.836,0.613c1.836,0,3.672,0,5.508,0
			c2.448,0,3.061-1.836,3.061-3.061C225.239,221.945,224.627,220.109,222.179,220.109z" />
			<path
				d="M211.774,198.078c-1.224-1.836-3.06-3.672-4.283-5.508c-1.225-2.448-0.612-5.508-1.836-7.344
			c-1.225-1.836-3.672-1.836-4.896,0c-3.672,5.508,3.672,12.852,7.344,16.524C210.551,204.197,213.611,200.526,211.774,198.078z" />
			<path
				d="M194.639,169.313c-1.836-4.284-4.284-9.18-6.732-13.464c-1.836-3.672-3.06-9.18-6.732-11.628
			c-1.836-1.224-4.284,0.612-4.896,2.448c0,4.284,4.284,8.568,6.732,11.628c3.06,4.284,5.508,7.956,8.568,12.24
			C192.803,172.986,195.863,171.15,194.639,169.313z" />
			<path
				d="M174.443,125.862c-3.06-4.284-5.508-8.568-6.732-14.076c-1.224-3.672,0.612-8.568-3.06-11.016
			c-1.224-0.612-2.448-0.612-3.672,0.612c0,0-0.612,0-0.612,0.612c-1.224,0.612-1.224,2.448-1.224,3.672
			c1.224,8.568,6.12,16.524,12.24,22.644C173.831,129.534,175.667,127.698,174.443,125.862z" />
			<path
				d="M152.411,87.917c-6.12,2.448-11.628,1.224-17.136-1.224c-4.896-1.836-8.568,4.284-4.284,6.732
			c7.956,3.672,15.912,3.06,23.256-1.224C156.695,90.978,155.471,86.694,152.411,87.917z" />
			<path
				d="M107.123,88.53c-3.06-0.612-6.732-1.224-9.792-1.836c-2.448-0.612-4.896-3.06-7.344-2.448c-1.836,0-3.672,1.224-3.06,3.06
			c0.612,9.18,14.688,6.12,20.808,5.508C108.959,92.202,108.959,88.53,107.123,88.53z" />
			<path
				d="M129.767,51.198c-9.18,0-18.972,7.344-25.092,14.076c-2.448,2.448,1.224,5.508,3.672,3.672
			c3.06-2.448,6.732-4.896,10.404-6.732c4.284-2.448,8.568-3.06,12.852-6.12C132.827,54.258,132.827,51.198,129.767,51.198z" />
			<path
				d="M167.099,24.882c-4.284-0.612-7.956,3.06-11.016,5.508c-4.284,3.672-7.956,7.956-11.628,12.24
			c-1.836,1.836,0.612,4.896,3.06,3.06c3.672-3.06,7.344-6.12,10.404-9.18c3.06-2.448,8.568-4.284,9.792-7.956
			C169.547,27.33,168.935,24.882,167.099,24.882z" />
			<path
				d="M205.655,1.014c-1.225-1.224-3.061-1.224-4.284-0.612c-3.061,1.836-17.748,9.792-17.136,12.852
			c-0.612-1.836-2.448-0.612-2.448,0.612c0.612,6.12,14.076-2.448,20.196-5.508c2.447,4.284,6.119,9.792,10.403,10.404
			c1.225,0,3.061-0.612,3.061-2.448C215.447,12.03,209.938,4.686,205.655,1.014z" />
			<path
				d="M251.555,38.958c-2.448-2.448-5.508-3.672-7.956-5.508c-3.06-1.836-6.12-3.672-9.18-4.896s-5.508,3.06-2.448,4.284
			c3.061,1.836,5.508,3.672,8.568,5.508c2.448,1.836,5.508,3.672,8.567,4.284C251.555,43.242,253.391,40.794,251.555,38.958z" />
			<path
				d="M288.887,59.154c-1.836-2.448-4.896-3.672-7.956-5.508c-3.06-1.836-6.731-3.672-9.792-5.508
			c-3.06-1.224-6.12,3.06-3.06,4.896c3.06,1.836,5.508,3.672,8.567,5.508c3.061,1.836,6.12,4.896,9.792,4.896
			C288.274,63.438,290.111,60.99,288.887,59.154z" />
		</g>
	</g>
</svg>
