<svg version="1.1" xmlns="http://www.w3.org/2000/svg" xmlns:xlink="http://www.w3.org/1999/xlink" x="0px" y="0px" width="414.332px" height="414.332px" viewBox="0 0 414.332 414.332" style="enable-background: new 0 0 414.332 414.332" xml:space="preserve">
	<g>
		<g>
			<path
				d="M101.185,119.223c-2.448-6.732-1.224-13.464-3.06-20.196c-1.224-3.672-6.732-3.672-7.344,0
			c-1.224,4.284-1.224,6.732-0.612,11.016c0.612,4.284,2.448,8.568,4.284,12.24S103.021,123.507,101.185,119.223z" />
			<path
				d="M99.961,55.574c-0.612-1.836-3.672-1.836-4.896,0c-3.06,6.12,0,14.688,0.612,21.42c0,2.448,3.672,2.448,3.672,0
			C99.961,70.874,103.021,61.694,99.961,55.574z" />
			<path
				d="M131.785,11.511c-4.896-0.612-8.568,3.06-11.628,6.731c-3.06,3.672-5.508,7.956-4.896,12.853c0,3.672,4.896,3.06,5.508,0
			c0.612-3.672,3.06-6.12,5.508-8.568c2.448-2.448,6.12-3.672,7.956-6.732C134.233,13.958,133.621,11.511,131.785,11.511z" />
			<path
				d="M199.717,1.719c-3.06-3.061-9.18-1.225-12.852-0.612c-4.896,0.612-9.18,1.836-14.076,3.672
			c-3.06,1.224-0.612,6.732,2.448,5.508c4.284-1.836,8.568-2.448,12.852-2.448c3.672,0,8.568,1.225,11.628-1.224
			C200.941,4.778,200.941,2.942,199.717,1.719z" />
			<path
				d="M229.705,20.69c-1.836-3.06-4.283-6.12-6.731-8.568c-2.448-2.447-5.508,1.225-3.672,3.672
			c2.448,2.448,3.672,5.509,4.896,8.568c1.836,3.672,1.836,7.956,6.12,9.18c1.836,0.612,3.061-0.611,3.672-1.836
			C235.213,27.423,231.542,23.75,229.705,20.69z" />
			<path
				d="M242.557,69.65c-1.225-3.06-2.448-6.12-3.061-9.18c-0.611-1.836-3.672-1.836-4.283,0c-0.612,3.06,0,5.508,0.611,8.567
			c0,1.836,0.612,3.061,1.225,4.284c0.611,1.836,0,3.672,0.611,4.896c1.225,3.06,5.509,3.672,6.732,0
			C245.005,75.158,243.781,72.099,242.557,69.65z" />
			<path
				d="M246.841,124.118c-0.612-4.896-0.612-9.18-1.225-14.076c0-2.447-3.672-2.447-3.672,0c0,4.896-0.611,9.181-1.224,14.076
			c0,3.672-1.836,8.568,1.224,11.628c1.225,1.225,3.061,1.225,4.284,0C249.289,133.299,247.453,127.79,246.841,124.118z" />
			<path
				d="M249.901,172.467c-0.612-4.284-1.224-7.956-1.224-12.24c0-1.836-3.061-1.836-3.061,0c0,3.672-0.611,7.344-1.224,11.016
			c-0.612,4.284-1.836,6.732,0,11.017c1.224,1.836,4.284,1.836,5.508,0C251.737,178.586,250.513,176.139,249.901,172.467z" />
			<path
				d="M251.125,226.322c-1.225-4.896-1.225-10.403-1.225-15.912c0-3.06-4.284-3.06-4.284,0
			c-0.611,7.956-3.06,22.645,3.672,28.152c1.837,1.224,4.284,0.612,4.284-1.836C253.573,233.055,252.349,229.994,251.125,226.322z" />
			<path
				d="M252.961,265.49c-1.836-2.447-6.12-1.224-4.896,1.836c1.224,3.061,1.836,5.509,2.448,9.181c0,3.06-0.612,6.12,1.224,8.567
			c1.225,1.836,4.284,1.836,4.896,0C259.693,279.566,256.021,270.387,252.961,265.49z" />
			<path
				d="M259.693,312.003c-0.612-2.448-1.836-4.896-4.284-6.732c-1.836-1.224-4.283,0.612-3.06,2.448s1.836,3.672,1.836,6.12
			c0,1.836-0.612,4.283,0,6.12c0.612,4.283,6.12,4.283,6.731,0C260.917,317.511,260.305,314.45,259.693,312.003z" />
			<path
				d="M288.458,323.019c-3.061-0.612-5.509,0-8.568,0c-3.061,0-6.12,0.612-9.18,0.612c-3.061,0.611-3.061,4.896,0,5.508
			c3.06,0.612,5.508,0.612,8.567,0.612c3.061,0,6.12,1.224,9.181,0.611C292.129,329.751,292.129,323.631,288.458,323.019z" />
			<path
				d="M320.893,319.347c-0.612,0-1.224,0-1.224,0h-0.612l0,0c-0.612,0-0.612,0-1.224,0l0,0h-0.612c-1.224,0-2.448,0-3.672,0
			c-3.061,0-6.12,0.612-9.181,0.612c-3.672,0-3.672,4.896,0,5.508c3.061,0,6.12,0.611,9.181,0.611c1.224,0,2.448,0,3.672,0h0.612
			c0,0,0.611,0,1.224,0s1.836,0,2.448,0c2.447-0.611,3.06-2.447,3.06-4.283C323.953,321.795,323.341,319.959,320.893,319.347z" />
			<path
				d="M318.445,345.662c-1.836-1.836-4.896-1.836-7.344,0c-1.836,1.225-3.06,2.448-4.896,4.284
			c-0.611,0.612-1.224,1.836-1.836,2.448c-0.611,1.224-1.224,3.672-2.447,4.284c-2.448,1.224-2.448,5.508,0,6.731
			c3.06,1.836,7.344-1.224,6.119-4.283c-1.224-2.448,5.509-13.465,8.568-11.017C317.833,348.723,319.057,346.887,318.445,345.662z" />
			<path
				d="M286.009,375.65c-3.061,4.896-7.345,10.404-11.628,14.076c-1.836,1.836-1.225,5.508,0.611,6.732
			c3.061,1.836,6.12-0.612,6.732-3.673c0-3.06,2.448-6.119,3.672-8.567s2.448-4.896,3.672-7.956
			C289.681,375.038,286.621,374.427,286.009,375.65z" />
			<path
				d="M261.529,395.234c-1.836,3.061-3.672,7.344-6.731,9.181c-1.225-0.612-2.448-1.837-3.061-3.061
			c-1.224-1.836-2.448-3.672-4.284-5.508c-4.283-3.672-11.628,1.224-7.956,6.12c3.061,4.284,9.792,15.3,16.524,11.628
			c6.12-3.672,7.956-10.404,10.404-16.524C268.261,394.011,263.365,392.175,261.529,395.234z" />
			<path
				d="M225.421,377.486c-2.448-1.224-4.896-3.06-6.732-5.508c-2.448-2.448-3.06-5.508-5.508-7.956
			c-2.448-3.06-6.732,0-6.12,3.672c0.612,3.061,3.672,6.732,6.12,8.568c2.448,2.448,6.12,4.284,9.18,6.12
			C226.033,383.606,228.481,379.322,225.421,377.486z" />
			<path
				d="M202.777,341.379c-1.836-2.448-5.508-3.672-7.956-5.509c-0.612,0-0.612-0.611-1.224-0.611
			c-0.612-0.612-1.224-1.225-1.836-1.836c-1.224-0.612-3.06-1.225-4.284-1.836c-0.612,0-0.612,0-0.612,0
			c-0.612,0-1.836,0-2.448,0.611c-1.836,1.225-1.836,3.061-1.836,4.896l0,0l0,0v0.611c0.612,0.612,0.612,0.612,0.612,0.612l0,0
			c0.612,0.612,0.612,0.612,1.224,1.225c4.284,1.836,10.404,2.447,14.076,5.508C201.553,346.887,204.613,343.826,202.777,341.379z" />
			<path
				d="M208.897,320.57c-3.06-1.836-5.508,0-8.568,1.225c-3.06,0.611-6.12-0.612-8.568-1.225
			c-3.672-1.224-5.508,4.284-2.448,5.508c3.672,1.837,7.344,3.673,11.016,3.673s9.18-1.225,9.792-5.509
			C210.733,323.019,210.121,321.183,208.897,320.57z" />
			<path
				d="M216.241,300.986c-2.447-3.06-1.836-6.731-1.836-9.792c0-1.224-0.611-2.447-1.836-3.06c-1.224-0.612-2.448-0.612-3.672,0
			c-1.224,0.612-1.836,1.836-1.836,3.06c0,5.508,0.612,10.404,4.896,14.688C215.017,308.331,219.301,304.047,216.241,300.986z" />
			<path
				d="M213.181,252.026c-0.612-1.836-4.284-1.836-4.896,0c-2.448,6.12-0.612,14.688,0,21.42c0,3.061,4.896,3.061,4.896,0
			C213.793,266.715,216.241,258.146,213.181,252.026z" />
			<path
				d="M209.509,202.454c-1.225-1.836-3.06-1.836-4.284,0c-1.836,2.448-1.224,5.508-1.224,8.568c0,4.284-0.612,7.956-1.836,12.24
			c-0.612,1.836,2.448,3.06,3.672,1.224c1.836-3.672,3.672-7.344,4.284-11.628C210.733,209.799,211.958,204.902,209.509,202.454z" />
			<path
				d="M200.941,157.166c0,5.509,1.224,11.017,1.224,16.524c0,2.448,3.672,2.448,4.284,0c0.612-5.508,1.224-11.016,1.224-16.524
			C207.673,152.883,200.941,152.883,200.941,157.166z" />
			<path
				d="M203.389,99.026c-1.224-1.836-3.672-1.836-4.896,0c-1.836,3.06-1.224,6.12-0.612,9.18c0,4.284,0.612,7.956,0.612,12.24
			c0,3.061,4.896,3.061,4.896,0c0-3.672,0.612-7.344,0.612-11.016C204.001,106.37,205.225,102.086,203.389,99.026z" />
			<path
				d="M196.045,72.71c-3.06-3.672-2.448-9.18-4.896-13.464c-3.06-4.284-9.18,0.612-5.508,4.284
			c3.06,3.672,3.06,8.568,6.732,11.628C194.209,77.606,197.881,75.158,196.045,72.71z" />
			<path
				d="M174.013,48.843c-7.344-0.612-16.524-0.612-22.644,4.896c-3.06,3.672,0.612,9.18,4.896,6.732
			c5.508-3.061,11.628-7.345,17.136-7.956C176.461,52.515,176.461,48.843,174.013,48.843z" />
			<path
				d="M142.801,72.099c-3.672,3.06-10.404,7.956-7.344,12.852c0.612,1.225,3.06,1.836,4.284,0.612
			c1.224-1.225,1.836-3.061,2.448-4.284c1.224-1.836,2.448-3.672,4.284-5.508C148.309,73.322,145.249,70.263,142.801,72.099z" />
			<path
				d="M144.025,118.61c-2.448-4.896-3.672-9.18-3.672-14.688c0-3.06-4.896-3.06-4.896,0c-0.612,6.732,0,12.24,3.06,18.36
			C139.741,125.954,145.861,122.895,144.025,118.61z" />
			<path
				d="M134.233,120.446c-3.06,0-5.508,1.224-7.956,1.836c-3.06,1.225-5.508,1.225-8.568,1.225c-4.284,0.611-4.284,6.119,0,6.119
			c6.732,0.612,14.076,1.225,18.972-4.283C137.905,124.118,137.293,120.446,134.233,120.446z" />
		</g>
	</g>
</svg>
