<svg version="1.1" xmlns="http://www.w3.org/2000/svg" xmlns:xlink="http://www.w3.org/1999/xlink" x="0px" y="0px" width="352.352px" height="352.352px" viewBox="0 0 352.352 352.352" style="enable-background: new 0 0 352.352 352.352" xml:space="preserve">
	<g>
		<g>
			<path
				d="M255.432,37.172c-7.956-15.3-20.808-28.152-36.107-36.108c-4.284-2.448-10.404-0.612-11.628,4.896
			c-1.225,4.284-3.061,8.568-4.896,12.24C153.84-4.444,95.699,20.036,58.979,54.308c-41.616,39.168-62.424,102.816-45.9,157.896
			c1.837,7.344,12.24,4.283,11.017-3.061c-7.956-51.408,6.12-99.756,40.392-138.924c37.332-42.228,82.008-45.9,133.416-40.392
			c-1.224,3.672-1.836,7.344-1.836,11.016c0,3.06,1.225,4.896,3.673,5.508c0,1.224,0,3.06,0.611,4.284
			c3.672,7.956,12.853,6.732,20.196,5.508c11.016-1.224,22.644-3.672,32.436-8.568C256.656,45.74,257.268,40.231,255.432,37.172z
			 M210.144,40.844c-0.611,0-1.224,0-2.447,0c1.224-7.344,5.508-14.688,9.791-22.032c7.345,4.896,13.465,11.016,18.973,18.36
			c-5.508,1.836-11.017,2.448-16.524,3.06C216.876,40.844,213.204,40.844,210.144,40.844z" />
			<path
				d="M297.048,318.08c58.752-74.664,80.172-204.408-9.18-265.608c-5.509-3.672-11.628,4.896-6.732,9.18
			c71.604,67.32,63.036,173.196,4.896,246.636c-1.836-1.837-4.284-3.061-6.12-4.284c0-6.12-7.956-11.017-12.853-5.508
			c-11.016,12.239-14.688,27.539-18.972,43.451c-1.224,4.896,2.448,10.404,7.956,10.404c17.136,0,34.884-3.672,50.796-11.016
			c4.284-2.448,4.896-9.181,1.836-12.24C303.78,324.812,300.72,321.752,297.048,318.08z M273.18,314.407
			c5.508,4.896,10.404,10.404,15.3,15.912c-7.344,2.448-15.3,3.672-23.256,4.896C267.06,327.872,269.508,320.527,273.18,314.407z" />
			<path
				d="M219.936,321.14c-36.72,14.076-63.648,15.912-100.979-0.612c-27.54-12.239-51.408-31.212-71.604-52.02
			c4.896-3.672,9.792-7.344,15.3-11.016c4.896-3.673,4.896-9.793,0-13.465c-13.464-9.18-29.376-16.523-45.288-20.808
			c-4.284-1.224-8.567,1.224-9.792,5.508c-3.06,11.017-4.284,21.42-2.447,33.048c1.224,7.956,5.508,20.809,13.464,24.48
			c3.672,1.836,9.792,0,9.18-5.508l0,0c3.06-1.836,6.12-3.061,9.18-4.896c19.584,28.764,51.408,50.796,83.232,63.036
			c30.6,12.24,80.784,22.644,105.264-7.344C229.728,327.26,226.668,318.691,219.936,321.14z M21.035,260.552
			c-1.836-6.732-1.224-13.464,0-19.584c9.181,3.06,17.748,7.344,26.316,12.24c-6.732,6.731-14.688,11.628-22.644,17.136
			C23.483,266.06,21.647,263.611,21.035,260.552z" />
		</g>
	</g>
</svg>
