<svg version="1.1" xmlns="http://www.w3.org/2000/svg" xmlns:xlink="http://www.w3.org/1999/xlink" x="0px" y="0px" width="377.781px" height="377.78px" viewBox="0 0 377.781 377.78" style="enable-background: new 0 0 377.781 377.78" xml:space="preserve">
	<g>
		<g>
			<path
				d="M22.03,39.78c0-3.672-6.12-3.672-6.12,0c-0.612,7.344-2.448,16.524,0.612,23.256c0.612,1.836,3.672,1.836,4.896,0
			C24.478,56.304,22.642,46.512,22.03,39.78z" />
			<path
				d="M17.746,102.816c0-1.836-2.448-1.836-3.06,0c-1.224,11.628-3.06,23.256-1.224,34.884c0.612,3.672,5.508,3.672,6.12,0
			C20.194,126.072,18.97,114.444,17.746,102.816z" />
			<path
				d="M18.358,178.704c0-3.06-3.672-2.448-4.284,0c-1.224,9.792-7.344,22.644-3.672,32.437c1.224,2.447,4.284,2.447,4.896,0
			c1.836-4.896,1.836-10.404,1.836-15.912C18.358,189.72,18.358,184.212,18.358,178.704z" />
			<path
				d="M11.014,238.068c-0.612-1.225-3.06-1.225-2.448,0.611c2.448,10.404,0,21.421,1.836,31.824
			c0.612,2.448,4.284,2.448,4.896,0C17.134,260.712,14.686,247.86,11.014,238.068z" />
			<path
				d="M48.958,319.464c-3.672-3.672-7.956-6.12-12.24-9.792c-3.672-3.06-6.732-6.12-10.404-9.18
			c-1.836-1.224-3.672,0.612-2.448,2.448c6.732,6.731,13.464,15.3,22.644,19.584C48.346,323.136,50.794,321.3,48.958,319.464z" />
			<path
				d="M108.322,340.272c-10.404-1.836-21.42,0-32.436,0.611c-2.448,0-2.448,3.672,0,4.284
			c10.404,0.612,22.032,2.448,32.436,0.612C110.77,345.168,110.77,340.884,108.322,340.272z" />
			<path
				d="M178.702,347.004c-9.18-5.508-22.644-3.672-33.048-3.672c-3.672,0-3.672,5.508,0,5.508c5.508,0,11.628,0.612,17.136,1.225
			c4.896,0.611,9.792,1.836,14.688,2.447C179.926,352.512,181.15,348.229,178.702,347.004z" />
			<path
				d="M241.125,346.393c-4.284-1.225-8.568-0.612-12.853-0.612s-9.18,0-13.464,0.612c-3.672,0-3.672,5.508,0,5.508
			c4.284,0,9.18,0,13.464,0.611c4.284,0,8.568,0.612,12.853-0.611C244.185,351.288,244.185,347.616,241.125,346.393z" />
			<path
				d="M304.773,349.452c-7.344-1.224-15.3,0-23.256,0c-3.672,0-3.672,6.12,0,6.12c7.344,0.612,15.3,1.224,23.256,0
			C307.833,354.96,307.833,350.064,304.773,349.452z" />
			<path
				d="M361.689,353.124c-7.344-11.628-18.359-23.256-29.987-30.6c-4.896-3.061-11.629,4.896-6.732,8.567
			c9.18,7.345,17.748,14.688,25.092,23.868c-7.956,6.732-17.136,12.853-26.315,16.524c-3.673,1.836-1.225,7.344,2.447,6.12
			c12.24-3.673,22.032-12.24,33.048-17.748C362.301,358.632,363.525,355.572,361.689,353.124z" />
			<path
				d="M357.405,288.252c-2.447-6.731-1.836-13.464,0-20.195c1.225-3.673-4.283-6.12-6.119-2.448
			c-4.896,7.956-4.284,17.748,0,25.704C353.122,294.372,359.241,291.924,357.405,288.252z" />
			<path
				d="M359.241,208.692c-6.119,7.344-4.896,20.808-3.672,29.987c0.612,3.061,3.672,3.061,4.284,0
			c0.612-4.896,0.612-10.403,1.836-15.3c0.612-4.284,1.836-8.567,1.836-12.852C362.914,208.692,360.465,206.856,359.241,208.692z" />
			<path
				d="M364.75,138.924c-8.568,6.732-7.345,20.808-6.732,30.6c0,3.06,4.896,3.06,4.896,0c0-4.284,0.611-9.18,1.224-13.464
			c1.224-4.896,4.284-9.18,4.896-14.076C370.257,138.312,367.197,137.088,364.75,138.924z" />
			<path
				d="M363.525,76.5c-0.611-3.06-4.896-3.06-6.12,0c-2.447,7.956,0.612,17.748,0.612,26.316c0,2.448,4.284,2.448,4.284,0
			C362.914,94.248,365.973,84.456,363.525,76.5z" />
			<path
				d="M348.837,39.78c-9.181-3.06-22.645-6.12-31.212,0.612c-2.448,1.836-1.836,5.508,1.836,6.12
			c4.284,0,7.956-1.224,12.24-1.836c4.896-0.612,10.403,0,15.3,1.836C351.286,47.124,352.509,41.004,348.837,39.78z" />
			<path
				d="M275.397,36.72c-4.896-0.612-9.792-1.224-14.688-1.224c-1.225,0-3.061,0.612-3.672,1.836
			c-0.612,1.836-0.612,2.448,0,4.284c0.611,1.224,2.447,1.836,3.672,1.836c4.896,0,9.792-1.224,14.688-1.224
			C279.069,42.228,279.069,36.72,275.397,36.72z" />
			<path
				d="M218.481,33.66c-4.284-0.612-8.567-1.224-12.852-1.224c-3.672,0-7.344-1.224-11.017,0.612
			c-2.447,1.224-2.447,4.896,0,5.508c3.061,1.836,6.12,1.224,9.792,0.612c4.896-0.612,9.181-0.612,14.076-1.224
			C221.542,38.556,221.542,34.272,218.481,33.66z" />
			<path
				d="M148.714,36.72c-3.672-0.612-7.344-1.836-11.016-3.06s-7.344-3.672-11.628-3.672c-3.672,0-4.284,3.672-2.448,6.12
			c3.06,3.672,7.344,4.284,11.628,5.508c4.284,1.224,8.568,1.836,12.852,1.224C152.386,42.228,152.386,36.72,148.714,36.72z" />
			<path
				d="M94.858,37.332c-3.672-0.612-7.956-1.224-11.628-1.836c-3.672-0.612-6.732-2.448-10.404-1.836
			c-2.448,0-3.06,1.836-3.06,4.284c1.224,9.18,18.972,5.508,25.092,4.896C97.917,41.616,97.917,37.332,94.858,37.332z" />
			<path
				d="M85.678,0C67.318,1.224,50.182,16.524,37.33,28.764c-2.448,1.836-1.836,5.508,0,7.956
			c9.18,9.792,18.36,20.196,31.212,24.48c3.672,1.224,6.12-4.896,2.448-6.12c-9.18-4.284-17.748-12.24-23.256-21.42
			c4.896-4.896,9.792-9.18,15.912-12.852C70.99,15.3,80.17,13.464,87.514,7.956C91.186,6.12,90.574,0,85.678,0z" />
		</g>
	</g>
</svg>
