<svg version="1.1" xmlns="http://www.w3.org/2000/svg" xmlns:xlink="http://www.w3.org/1999/xlink" x="0px" y="0px" width="257.911px" height="257.911px" viewBox="0 0 257.911 257.911" style="enable-background: new 0 0 257.911 257.911" xml:space="preserve">
	<g>
		<g>
			<path
				d="M9.439,187.362c-9.792,4.284-11.016,17.136-7.956,25.704c1.224,3.672,6.732,2.447,6.12-1.836
			c-1.224-4.284-1.224-7.956,0.612-11.629c1.836-3.06,4.284-5.508,5.508-9.18C14.947,187.974,11.887,186.138,9.439,187.362z" />
			<path
				d="M31.471,134.118c-8.568,10.403-12.852,23.256-12.852,36.72c0,2.448,3.672,2.448,3.672,0
			c1.224-12.24,7.956-22.644,12.852-33.66C36.979,134.73,33.307,131.67,31.471,134.118z" />
			<path
				d="M59.623,77.814c-4.896,9.792-9.792,19.584-15.3,28.764c-1.224,1.836,1.836,3.672,3.06,1.836
			c6.732-8.568,14.076-17.748,16.524-28.764C64.519,77.202,60.847,75.366,59.623,77.814z" />
			<path
				d="M85.327,20.286c-5.508,6.12-9.792,15.3-9.792,23.868c0,3.06,4.284,3.06,4.284,0c0.612-4.284,1.836-7.956,4.284-11.628
			c1.836-3.06,4.284-6.12,5.508-9.792C90.223,20.286,87.163,18.45,85.327,20.286z" />
			<path
				d="M136.123,31.914c-3.672-2.448-7.344-3.672-11.016-6.12c-3.672-2.448-7.344-6.12-11.016-8.568
			c-2.448-1.836-4.896,0.612-3.06,3.06c5.508,7.344,14.076,16.524,23.868,17.136C137.348,38.034,137.959,33.75,136.123,31.914z" />
			<path
				d="M174.679,67.41c-1.836-1.836-4.896-3.06-7.344-4.896c-1.836-1.224-3.672-3.06-5.508-4.284
			c-2.448-2.448-6.12,1.224-3.672,3.672c3.672,4.284,7.956,9.18,14.076,10.404C174.679,72.918,177.127,69.858,174.679,67.41z" />
			<path
				d="M197.323,101.07c-4.284-4.284-9.792-7.344-15.3-10.404c-1.225-0.612-3.061,1.224-1.836,2.448
			c4.283,3.672,7.956,7.344,11.628,11.628c3.06,3.672,5.508,9.792,10.403,12.24c1.836,0.612,4.284,0,4.284-2.448
			C205.892,108.414,201.607,104.742,197.323,101.07z" />
			<path
				d="M234.655,149.418c-2.448-2.448-5.508-3.672-7.956-6.12c-3.061-2.448-5.508-5.508-7.344-8.567
			c-1.836-3.061-5.509-0.612-4.284,2.447c1.836,4.284,4.284,7.344,7.344,11.017c3.061,3.06,6.12,6.12,10.404,6.731
			C235.268,154.926,235.879,151.254,234.655,149.418z" />
			<path
				d="M249.955,185.526c-3.06-3.061-6.732-5.509-11.016-7.345c-1.836-0.611-3.061,2.448-1.225,3.061
			c3.672,2.448,6.12,4.896,8.568,8.567c1.224,1.836,1.836,3.061,3.06,4.896c1.225,2.448,1.225,4.284,3.061,6.12
			s4.896,0.611,5.508-2.448C257.911,194.706,253.016,189.198,249.955,185.526z" />
			<path
				d="M230.371,200.214c-6.732-4.284-12.852-10.404-20.196-13.464c-1.224-0.612-3.672-0.612-4.896,0.612
			c-0.612,0.611-0.612,1.224-1.225,1.836c-0.611,1.836,0.612,3.672,1.837,4.284c6.731,4.283,14.688,7.955,22.644,11.016
			C230.983,205.722,232.207,202.05,230.371,200.214z" />
			<path
				d="M182.023,172.674c-4.284-0.612-9.181-3.06-13.464-4.284c-4.896-1.836-9.181-5.508-14.076-6.731
			c-3.672-1.225-5.508,3.06-3.672,6.12c3.06,4.283,9.18,6.12,14.075,7.344c6.12,1.836,11.017,1.224,17.137,0.612
			C183.859,175.122,183.859,172.674,182.023,172.674z" />
			<path
				d="M131.839,157.374c-3.06-3.06-7.956-6.732-9.792-11.016c-1.224-2.448-3.672-2.448-6.12-1.837
			c-3.06,1.225-4.896,4.284-7.344,6.732c-1.836,2.448-3.672,4.896-4.896,7.956c-0.612,1.836,0.612,4.284,1.836,5.508
			c3.672,2.448,6.12-1.224,7.344-3.672c1.836-3.06,4.896-4.896,6.732-7.956c3.672,0.612,6.732,3.672,9.18,6.12
			C131.227,160.434,133.062,158.598,131.839,157.374z" />
			<path
				d="M87.775,182.466c-3.06,4.284-5.508,8.568-11.016,9.792c-1.224,0-2.448,1.225-3.06,3.061v0.611
			c0,1.225,0,3.061,1.224,3.672h0.612c1.836,0.612,3.672,0.612,4.896-0.611c4.896-4.284,9.18-7.956,11.016-14.688
			C93.283,181.242,89.611,180.018,87.775,182.466z" />
			<path
				d="M54.727,203.274c-5.508,1.224-10.404,3.672-14.688,7.344c-4.284,3.06-9.792,8.567-10.404,14.076
			c0,2.447,3.06,3.672,4.896,3.06c4.284-1.836,6.12-7.344,9.18-11.016c3.672-3.672,7.344-6.732,12.24-9.181
			C59.011,206.334,57.175,202.662,54.727,203.274z" />
			<path
				d="M22.903,227.754c-4.284,1.836-9.18,2.448-13.464,3.061c0-3.061,0-6.12-1.836-7.956c-1.224-1.837-4.284-1.837-5.508,0
			c-2.448,3.672-1.836,9.792-1.836,14.075c0,3.672,3.672,5.509,6.732,3.672c6.12-3.06,12.24-4.283,18.36-7.344
			C28.411,232.038,25.963,226.53,22.903,227.754z" />
		</g>
	</g>
</svg>
