<svg version="1.1" xmlns="http://www.w3.org/2000/svg" xmlns:xlink="http://www.w3.org/1999/xlink" x="0px" y="0px" width="317.434px" height="317.434px" viewBox="0 0 317.434 317.434" style="enable-background: new 0 0 317.434 317.434" xml:space="preserve">
	<g>
		<path
			d="M316.58,271.94c-47.124-90.576-96.084-187.271-175.032-254.592c-3.672-3.672-9.18-3.06-12.24,1.836
		c-28.152,41.616-46.512,91.188-67.32,136.476c-12.24,26.928-25.092,53.856-37.332,80.784c-4.284,8.568-7.956,17.137-12.24,25.704
		c-3.06,7.345-7.344,11.628-1.836,12.853c-3.672-0.612-6.732,3.672-3.672,6.731l0,0c0,0,0,0,0.612,0
		c-5.508-0.611-10.404,6.12-5.508,11.017c29.988,31.212,96.084-21.42,120.564-38.557c9.18-6.731,18.36-13.464,26.928-20.808
		c3.672-3.06,7.956-6.12,11.628-9.792c-1.836,1.836,26.315,17.136,28.151,18.36c37.944,20.808,77.725,37.332,121.177,41.615
		C315.969,284.181,319.028,276.837,316.58,271.94z M161.744,208.904c-3.06-1.836-6.731-1.224-9.792,1.225
		c-19.584,17.136-40.392,32.436-61.812,46.512c-19.584,12.853-55.692,37.944-80.172,26.316h0.612
		c10.404-3.061,15.3-19.584,19.584-27.54c13.464-26.316,26.316-53.244,39.168-80.784c21.42-45.9,40.392-96.696,67.932-140.148
		c69.768,62.424,115.668,148.716,158.508,231.335C247.425,258.477,204.585,233.385,161.744,208.904z" />
	</g>
</svg>
