<svg version="1.1" xmlns="http://www.w3.org/2000/svg" xmlns:xlink="http://www.w3.org/1999/xlink" x="0px" y="0px" width="268.856px" height="268.856px" viewBox="0 0 268.856 268.856" style="enable-background: new 0 0 268.856 268.856" xml:space="preserve">
	<g>
		<g>
			<path
				d="M46.14,233.853c-1.224-3.673-6.12-3.673-7.344,0c-2.448,8.567-0.612,19.584,1.224,28.151c0.612,2.448,4.896,2.448,5.508,0
			C46.751,253.437,48.588,242.42,46.14,233.853z" />
			<path
				d="M45.528,187.34c-0.612-3.06-5.508-3.06-6.12,0c-1.836,7.345,0.612,16.524,1.224,23.868c0,2.448,3.672,2.448,3.672,0
			C44.916,203.864,47.364,195.296,45.528,187.34z" />
			<path
				d="M43.692,133.484c-6.12,7.344-4.284,20.195-3.672,28.764c0,2.448,4.284,2.448,4.284,0
			c0.612-4.896,0.612-9.792,1.224-14.688c0.612-4.283,1.836-7.955,2.448-12.239C48.588,132.873,45.528,131.648,43.692,133.484z" />
			<path
				d="M48.588,74.732c-0.612-2.448-4.284-2.448-5.508,0c-1.836,4.896-0.612,9.792-0.612,14.688
			c0,5.508,0.612,11.016,1.224,15.912c0,3.06,4.284,3.06,4.284,0c0.612-5.508,0.612-11.016,1.224-15.912
			C49.2,84.524,49.812,79.017,48.588,74.732z" />
			<path
				d="M46.751,36.177c0.612-3.672,1.836-7.344,2.448-11.016c0-2.448-3.06-3.672-4.896-1.836
			c-6.732,6.12-3.672,19.584,0.612,26.316c1.224,1.836,4.284,0.612,3.672-1.224C46.751,44.132,46.14,40.46,46.751,36.177z" />
			<path
				d="M81.636,14.145c-6.12-9.18-22.032-11.628-31.824-14.076c-2.448-0.612-4.284,3.06-1.836,4.284
			c4.896,1.836,9.792,3.672,14.688,6.12c5.508,2.448,9.792,5.508,14.688,7.956C80.412,19.652,83.472,16.592,81.636,14.145z" />
			<path
				d="M126.312,35.564c-6.732-1.836-12.852-6.732-19.584-9.18c-3.06-1.224-6.12,3.06-3.06,4.896
			c3.672,2.448,7.344,4.896,11.016,7.344s6.732,3.672,11.628,3.06C129.984,41.073,129.372,36.177,126.312,35.564z" />
			<path
				d="M175.271,73.508c-3.06-4.284-7.956-6.12-11.628-9.18c-4.284-3.06-8.567-6.732-12.852-10.404
			c-2.448-1.836-4.896,1.224-3.061,3.06c3.672,4.284,6.732,7.956,11.017,11.628c3.672,3.672,7.956,8.568,13.464,9.792
			C174.047,79.017,176.496,75.957,175.271,73.508z" />
			<path
				d="M218.111,97.376c-2.447-3.06-6.119-4.284-9.18-5.508c-3.672-1.836-7.956-3.672-11.628-5.508
			c-3.06-1.224-6.12,3.06-3.06,4.896c3.672,1.836,7.344,4.284,11.016,6.12c3.06,1.836,6.732,4.284,10.404,4.284
			C217.5,101.661,219.335,99.212,218.111,97.376z" />
			<path
				d="M226.679,116.349c-4.284,3.672-7.956,7.956-11.628,12.852c-2.448,3.06-4.896,6.731-2.448,11.015
			c1.225,1.836,3.672,2.448,4.896,0.612c2.447-2.448,3.06-4.896,4.283-7.344c2.448-4.284,5.509-8.568,8.568-12.852
			C232.799,117.573,229.739,113.9,226.679,116.349z" />
			<path
				d="M193.631,161.024c-1.836,2.447-3.061,4.283-5.508,6.119c-1.225,1.225-4.284,3.673-6.12,3.673
			c-3.672,0-5.508,3.672-3.672,6.731c1.836,3.061,6.12,2.448,7.956,0c0.611-1.224,2.447-1.836,3.672-3.06
			c1.224-1.225,2.447-1.836,3.06-3.061c1.836-2.447,3.672-6.12,4.284-9.18C197.916,160.412,194.855,159.188,193.631,161.024z" />
			<path
				d="M163.031,197.132c-2.447,3.061-4.896,6.12-7.955,9.181c-3.061,2.447-7.345,3.672-9.181,6.731
			c-1.836,3.061,0,5.508,3.061,5.508c4.283,0.612,8.567-4.896,11.628-7.344c3.06-3.06,6.12-7.344,7.956-11.628
			C169.763,196.521,164.867,193.46,163.031,197.132z" />
			<path
				d="M125.088,228.956c-3.06,1.224-6.12,3.06-8.568,5.508c-3.06,2.448-6.12,4.896-9.18,6.732
			c-4.896,3.06-0.612,10.403,4.896,7.956c6.732-3.061,9.792-11.017,15.912-14.688C129.372,232.628,128.147,227.732,125.088,228.956z
			" />
			<path
				d="M85.92,257.108c-4.896-0.612-9.18,0-14.076,1.224c-3.672,0.612-7.956,1.224-9.792,4.896c-1.224,1.836,0,4.896,2.448,5.508
			c3.672,0.611,6.12-1.225,8.568-3.061c3.672-2.447,7.956-4.896,12.852-6.12C87.756,259.556,87.756,257.108,85.92,257.108z" />
		</g>
	</g>
</svg>
