<svg version="1.1" xmlns="http://www.w3.org/2000/svg" xmlns:xlink="http://www.w3.org/1999/xlink" x="0px" y="0px" width="389.499px" height="389.499px" viewBox="0 0 389.499 389.499" style="enable-background: new 0 0 389.499 389.499" xml:space="preserve">
	<g>
		<g>
			<path
				d="M137.66,361.783c-3.672,1.224-7.344,1.224-11.628,1.224c-4.896-0.612-9.18-2.448-14.076-1.836
			c-3.06,0.612-3.672,4.284-1.836,6.12c6.732,6.732,22.032,4.896,29.376,0C143.168,365.455,141.332,360.559,137.66,361.783z" />
			<path
				d="M89.924,349.543c-4.284,1.836-7.956,2.448-12.24,1.224c-3.672-1.224-6.12-4.896-8.568-7.344
			c-2.448-2.448-6.12-0.611-6.12,2.448c-0.612,6.732,5.508,11.628,11.628,12.852c6.732,1.836,13.464,0,18.972-4.283
			C95.432,352.604,92.984,348.319,89.924,349.543z" />
			<path
				d="M50.144,324.451c-7.956-0.612-9.792-8.568-12.852-14.688c-1.836-3.672-6.12-0.611-5.508,2.448
			c1.224,9.792,7.956,18.36,18.972,17.748C53.816,329.347,53.816,324.451,50.144,324.451z" />
			<path
				d="M23.216,277.939c-4.284-4.896-7.344-11.017-8.568-17.748c-1.224-5.509,0.612-11.017,0-16.524
			c-0.612-2.448-3.672-2.448-4.284-0.612c-7.956,11.628,1.224,29.376,9.792,37.332C21.992,282.835,25.052,279.775,23.216,277.939z" />
			<path
				d="M15.26,182.467c0.612-3.06-3.672-5.508-4.896-2.448c-4.896,10.404-3.06,23.256,0.612,33.659
			c0.612,1.836,3.672,1.225,3.06-0.611C11.588,202.051,13.424,192.259,15.26,182.467z" />
			<path
				d="M32.396,107.191c-7.344,7.956-13.464,18.972-13.464,29.988c0,3.06,4.896,3.06,4.896,0
			c0.612-10.404,7.956-18.36,12.24-26.928C37.904,107.804,34.844,104.744,32.396,107.191z" />
			<path
				d="M81.356,55.784c-4.896,1.224-9.18,4.284-14.076,7.344c-4.284,2.448-8.568,5.508-12.24,9.18
			c-1.836,1.836,1.224,4.896,3.06,3.06c7.344-6.12,18.972-7.956,25.704-15.912C85.028,58.231,83.804,55.171,81.356,55.784z" />
			<path
				d="M141.332,21.512c-4.896,1.224-9.18,4.284-13.464,6.12c-4.896,2.448-9.792,4.284-15.3,6.732
			c-2.448,1.224-1.224,4.896,1.224,3.672c9.18-2.448,23.256-4.896,29.376-12.852C145.004,23.348,143.78,20.899,141.332,21.512z" />
			<path
				d="M280.256,13.556c-0.612,0-0.612,0-1.224,0c0,0,0,0-0.612,0s-0.612,0-1.225,0c-0.611,0-1.224,0-1.836,0
			c-1.224,0-2.447,0-3.672,0l0,0c-1.836,0-4.284,0-6.12,0.612c-3.06,0-3.06,4.896,0,4.896c1.836,0,4.284,0,6.12,0.612l0,0h3.672
			c0.612,0,1.225,0,1.836,0c0.612,0,0.612,0,1.225,0l0,0c0.612,0,1.224,0,1.836,0c1.836,0,2.448-1.836,2.448-3.06
			C282.705,15.392,282.092,14.167,280.256,13.556z" />
			<path
				d="M340.844,44.156c-7.344-9.18-23.256-9.792-33.66-12.24c-1.224-0.612-2.448,1.836-1.224,2.448
			c5.508,2.448,10.403,4.896,15.912,6.732c4.896,2.448,10.403,6.12,15.3,7.344C339.621,49.051,342.68,46.604,340.844,44.156z" />
			<path
				d="M355.533,72.308c-1.837-2.448-5.509,0.612-4.284,3.06c2.447,4.284,5.508,7.956,7.956,12.24
			c3.06,4.284,4.896,9.18,7.344,13.464c1.224,2.448,6.12,1.836,5.508-1.224C371.444,88.832,361.652,80.264,355.533,72.308z" />
			<path
				d="M379.4,160.436c-1.836-4.284-3.06-9.18-3.672-14.076c-0.611-3.672-6.12-4.284-6.12,0c0,4.896,0.612,9.792,1.836,14.688
			c1.225,4.284,2.448,9.792,5.509,12.852c1.836,1.224,4.283,1.224,4.896-1.224C383.072,168.392,380.625,164.72,379.4,160.436z" />
			<path
				d="M378.789,213.067c0-3.673-5.509-3.673-5.509,0c-0.611,11.016-3.06,24.479-0.611,35.496c0.611,3.06,6.12,3.06,6.731,0
			C381.848,237.547,379.4,224.083,378.789,213.067z" />
			<path
				d="M363.488,278.551c-1.836,4.896-4.283,9.181-6.731,13.464c-2.448,4.284-6.12,7.345-6.732,12.24
			c0,2.448,3.061,3.672,4.896,3.061c4.284-2.448,6.731-8.568,8.567-12.853c2.448-4.896,3.673-9.792,5.509-14.688
			C370.22,276.715,364.712,275.491,363.488,278.551z" />
			<path
				d="M332.276,327.511c-3.672,3.061-7.344,6.732-11.628,9.792c-4.284,3.061-9.792,5.508-11.628,10.404
			c-0.612,1.836,1.225,4.284,3.061,4.284c4.896,0,9.18-4.896,12.852-7.956c4.284-3.672,7.956-7.956,11.628-11.628
			C339.621,329.347,335.948,325.063,332.276,327.511z" />
			<path
				d="M287.6,362.395c-5.508-0.611-11.016,0-16.523,0.612c-5.509,0.612-12.853,1.225-17.748,5.508
			c-2.448,2.448-0.612,6.12,2.447,6.732c4.896,0.612,10.404-2.448,14.688-3.672c5.508-1.836,11.628-3.061,17.136-4.284
			C290.661,366.679,289.436,363.007,287.6,362.395z" />
			<path
				d="M253.329,383.815c-11.628-4.284-22.645-9.792-33.049-15.912c3.673-1.836,7.345-4.284,11.628-6.12
			c6.732-3.061,14.076-4.896,20.196-9.18c4.284-2.448,2.448-9.181-2.448-9.181c-7.344-0.611-14.688,3.672-20.808,6.732
			c-7.956,3.672-15.3,7.956-23.256,12.239c-3.672,1.837-3.672,7.956,0,9.793c15.3,6.731,30.6,15.3,47.124,17.136
			C256.388,390.547,256.388,385.039,253.329,383.815z" />
			<path
				d="M197.024,8.047c-17.748-6.12-36.72-8.568-55.08-7.956c-4.896,0-4.896,7.344,0,7.956c15.3,1.224,30.6,3.672,44.676,8.568
			c-3.06,5.508-6.12,11.016-9.18,16.524c-2.448,4.896-7.344,11.016-5.508,16.524c0.612,2.448,3.06,4.284,5.508,3.06
			c6.12-1.836,7.956-8.568,10.404-13.464c3.672-7.956,7.956-15.3,12.241-22.644C203.144,13.556,200.696,9.271,197.024,8.047z" />
		</g>
	</g>
</svg>
