<svg version="1.1" xmlns="http://www.w3.org/2000/svg" xmlns:xlink="http://www.w3.org/1999/xlink" x="0px" y="0px" width="393.711px" height="393.711px" viewBox="0 0 393.711 393.711" style="enable-background: new 0 0 393.711 393.711" xml:space="preserve">
	<g>
		<g>
			<path d="M7.458,192.627L7.458,192.627L7.458,192.627z" />
			<path
				d="M391.181,203.643c-15.3-12.239-31.823-22.643-48.96-33.047c-4.896-3.06-11.016,0.612-11.016,6.12
			c0,7.344,0,14.076,0.612,21.419c-36.721,3.672-72.217,12.24-108.937,17.136c-5.508,0.612-14.076,1.225-23.867,1.836
			c30.6-9.18,48.959-25.091,37.943-50.183c-22.032-51.408-89.963-23.256-104.04,18.36c-3.672,11.628-3.06,20.195,1.224,26.928
			c-10.404,0.612-20.196,0.612-28.764,0.612s-17.136,0.611-25.704,0.611c-4.896-7.956-11.628-15.3-19.584-19.583
			c-6.12-3.06-12.24,4.284-7.344,9.18c3.672,3.672,7.344,6.731,10.404,10.403c-7.344,0-14.688,0-22.032-0.611
			c0-1.225-0.612-2.448-1.836-3.672c-4.284-6.12-9.792-11.017-15.3-15.912c-4.284-4.284-10.404-7.345-13.464-6.12
			c-1.836,0.611-3.672,2.448-3.672,4.896c0,0,0,0,0,0.612l0,0l0,0c0,0.612,0,0.612,0,1.224c0,1.225,0.612,3.061,0.612,3.671
			c1.224,2.448,3.672,4.284,6.12,6.12c3.06,2.448,6.12,5.509,9.18,8.568c-4.896-0.612-10.404-1.224-15.3-1.836
			c-6.12-0.612-9.18,7.344-2.448,9.792c3.672,1.224,9.792,2.448,17.748,3.672c-4.896,7.344-12.24,12.852-19.584,17.136
			c-7.344,4.284-0.612,14.688,6.732,11.017c9.18-4.284,17.748-11.017,23.868-19.584c1.836-1.836,3.06-4.284,4.896-6.732
			c8.568,1.224,18.972,1.836,29.376,2.448c-8.568,6.731-17.748,13.464-28.152,17.136c-5.508,1.836-3.672,10.404,2.448,9.18
			c14.688-3.672,24.48-15.3,38.556-20.808c2.448-1.224,4.284-3.06,4.284-4.896c22.032,0.611,45.9,0,67.932-3.061
			c48.348,17.136,160.344-10.404,181.151-12.852c1.225,6.119,3.061,11.628,6.12,17.136c1.225,1.836,3.061,2.448,4.896,2.448
			c0.611,1.836,1.836,3.672,4.283,4.283c6.732,1.836,12.853-2.447,18.36-5.508c8.568-4.896,16.524-10.403,23.256-17.136
			C394.241,211.599,394.853,206.091,391.181,203.643z M159.233,210.375c-9.792-4.896-14.688-13.463-7.956-26.928
			c8.568-18.972,33.66-33.66,53.855-28.152c18.36,4.896,28.152,27.54,11.017,38.556
			C200.237,204.255,180.042,208.539,159.233,210.375z" />
		</g>
	</g>
</svg>
