<svg version="1.1" xmlns="http://www.w3.org/2000/svg" xmlns:xlink="http://www.w3.org/1999/xlink" x="0px" y="0px" width="367.744px" height="367.744px" viewBox="0 0 367.744 367.744" style="enable-background: new 0 0 367.744 367.744" xml:space="preserve">
	<g>
		<g>
			<path
				d="M305.882,240.913c-7.344,6.12-15.912,9.181-24.48,9.792c-1.224-28.764,1.836-99.755-36.72-90.576
			c-11.628,3.06-19.584,10.404-25.704,20.808c-0.611-31.824-3.672-63.036-17.748-91.188c-14.076-27.54-50.796-64.872-81.396-36.108
			c-27.54,26.316-29.376,80.784-32.436,116.28c-1.224,14.688-1.836,29.988-2.448,45.289c-10.404-32.437-26.928-59.977-53.856-54.468
			c-53.856,11.016-24.48,130.968-9.792,161.568c2.448,4.896,9.792,0.612,7.344-4.284C20.69,299.666-1.342,156.458,43.334,175.43
			c20.196,8.568,27.54,48.348,32.436,67.32c4.896,19.584,8.568,39.168,11.628,59.363c1.224,7.956,14.688,6.12,14.076-1.836
			c-5.508-68.544-7.344-148.104,15.3-212.976c18.972-53.244,62.424-14.688,75.889,22.032
			c19.584,55.692,5.508,117.504,12.239,175.032c1.225,9.181,14.688,9.792,14.688,0c0-31.212-0.612-66.708,12.852-95.472
			c15.301-34.884,29.376,10.404,30.601,24.48c1.224,15.3,0.611,31.212,3.06,47.124c0.612,3.672,3.061,7.344,7.344,7.344
			c16.524-0.612,29.376-4.284,42.229-14.688C323.63,245.81,313.226,235.405,305.882,240.913z" />
			<path
				d="M364.022,239.689c-16.523-9.18-37.332-20.196-56.916-18.972c-5.508,0.611-7.344,9.18-1.224,9.792
			c15.912,2.448,30.6,9.18,43.452,17.748c-11.628,15.912-25.704,28.151-44.677,34.884c-9.791,3.672-5.508,19.584,4.284,15.912
			c25.093-9.181,44.064-25.704,57.528-48.96C368.918,246.422,367.694,241.525,364.022,239.689z" />
		</g>
	</g>
</svg>
