<svg version="1.1" xmlns="http://www.w3.org/2000/svg" xmlns:xlink="http://www.w3.org/1999/xlink" x="0px" y="0px" width="377.477px" height="377.477px" viewBox="0 0 377.477 377.477" style="enable-background: new 0 0 377.477 377.477" xml:space="preserve">
	<g>
		<path
			d="M376.539,129.505c-22.032-42.228-34.271-89.352-67.32-124.848c-3.06-3.672-9.792-2.448-11.628,1.224
		c-19.584,36.72-29.987,77.724-58.752,108.936c-5.508,6.12,0,13.464,7.345,12.24c11.016-1.224,22.031,1.224,32.436-0.612
		c14.076,50.184-12.852,148.716-69.156,162.18c-53.244,12.853-78.948-70.38-80.784-107.1c-2.448-45.288,7.956-89.964,9.792-135.252
		c4.284-3.672,3.06-12.852-4.284-13.464c-41.616,0-85.068-3.061-126.684,2.448c-3.06,0.612-4.284,2.448-4.896,4.284
		c-1.836,0.612-3.06,1.836-2.448,3.672c15.3,117.504-9.18,288.251,138.312,326.196c148.716,37.944,190.944-124.236,194.616-239.292
		c12.24,3.06,23.868,4.284,35.496,9.18C374.703,143.581,379.599,135.013,376.539,129.505z M333.087,116.042c0-0.612,0-1.224,0-1.836
		c0-8.568-13.464-8.568-13.464,0c-0.612,58.14-6.731,118.729-31.824,172.584c-30.6,65.484-93.636,86.904-160.956,66.097
		c-127.296-37.944-95.472-205.632-118.728-306c39.168,4.896,80.172,3.06,119.952,2.448c-6.12,59.364-22.644,118.116-7.344,177.48
		c9.792,37.944,46.512,83.231,89.964,77.724c66.708-8.567,99.756-128.52,80.783-182.376c-1.836-6.12-9.18-6.12-12.239-3.06
		c-6.12-3.06-12.853-4.896-19.584-5.508c20.195-26.928,31.212-59.364,45.899-89.964c23.256,28.764,34.884,64.26,50.185,97.92
		c-7.345-1.836-14.688-3.06-21.42-4.896C333.699,116.653,333.087,116.653,333.087,116.042z" />
	</g>
</svg>
