<svg version="1.1" xmlns="http://www.w3.org/2000/svg" xmlns:xlink="http://www.w3.org/1999/xlink" x="0px" y="0px" width="381.371px" height="381.37px" viewBox="0 0 381.371 381.37" style="enable-background: new 0 0 381.371 381.37" xml:space="preserve">
	<g>
		<path
			d="M325.744,58.229L325.744,58.229c2.448-1.836,5.508-3.672,8.568-5.508c4.896-2.448,4.283-9.792,0-12.24
		c-20.809-14.076-41.004-28.764-63.036-39.78c-5.508-2.448-12.853,1.836-11.017,7.956c7.345,22.032,16.524,43.452,20.196,66.708
		c0.612,3.672,3.061,4.896,5.508,4.896c1.836,1.836,4.896,3.06,7.345,1.224c7.344-4.896,14.075-10.404,20.808-15.912
		c0,0,0,0.612,0.612,0.612c37.332,56.304,56.916,120.564,39.779,187.271c-17.136,70.38-77.724,111.384-147.491,113.22
		C128.68,369.736,63.808,320.164,37.492,248.56c-14.076-39.779-14.688-82.619-4.896-123.623
		c14.076-3.06,29.988-11.016,34.884-23.868c1.836-4.284-3.672-9.18-7.344-7.344c-5.508,2.448-9.18,6.12-14.076,9.792
		c-3.06,1.836-5.508,3.672-8.568,4.896C39.94,100.457,43,92.5,46.06,84.544c12.852-3.672,27.54-11.016,31.824-23.256
		c1.836-4.896-4.896-10.404-9.18-7.344c-4.896,3.672-7.956,7.344-12.852,11.016c3.672-6.732,7.344-12.852,11.016-18.972
		c4.284-6.12-5.508-11.628-9.792-6.12C52.18,46.6,47.284,53.944,43.612,60.676c-2.448-11.016-5.508-21.42-7.344-32.436
		c-0.612-4.896-7.956-3.06-7.956,1.224c-1.224,16.524,3.06,33.048,3.672,50.184c0,1.224,0,1.836,0.612,3.06
		c-3.06,7.344-6.12,15.3-8.568,22.644c-4.284-9.792-9.18-19.584-11.016-29.988c-0.612-4.896-7.956-3.672-8.568,1.224
		C3.22,92.5,12.4,106.576,15.46,121.876c0,1.836,1.224,3.06,3.06,3.672C-8.408,246.724,65.644,380.752,207.016,381.364
		c73.439,0.611,134.027-43.452,159.119-111.996C391.228,199.6,371.032,115.756,325.744,58.229z M300.04,60.676
		c-0.612-2.448-1.224-4.896-1.224-7.344c1.224,1.836,2.448,3.06,4.284,4.896l0,0C301.875,58.84,301.263,60.064,300.04,60.676z" />
	</g>
</svg>
