<svg version="1.1" xmlns="http://www.w3.org/2000/svg" xmlns:xlink="http://www.w3.org/1999/xlink" x="0px" y="0px" width="380.281px" height="380.282px" viewBox="0 0 380.281 380.282" style="enable-background: new 0 0 380.281 380.282" xml:space="preserve">
	<g>
		<g>
			<path
				d="M10.566,279.355c-1.224-3.672-1.836-7.344-2.448-11.016c0-3.061,0-5.508-1.224-8.568c-1.224-2.448-4.896-2.448-5.508,0
			c-3.06,7.344-0.612,17.136,3.06,23.868C6.282,287.311,12.402,283.639,10.566,279.355z" />
			<path
				d="M9.954,214.483c0-3.06-4.284-3.672-5.508-1.224c-4.896,8.567-3.672,20.196,1.224,28.764
			c0.612,1.836,3.672,0.612,3.06-1.224C5.67,231.619,9.342,223.663,9.954,214.483z" />
			<path
				d="M33.21,172.255c-8.568,2.448-14.688,13.464-18.36,20.808c-1.224,3.061,2.448,5.508,4.284,2.448
			c4.284-7.344,9.792-13.464,15.912-19.584C36.882,174.703,35.658,171.643,33.21,172.255z" />
			<path
				d="M71.766,155.731c-3.06-1.836-7.344-1.224-11.016-0.612c-4.284,0.612-7.956,1.836-11.628,4.284
			c-2.448,1.224-0.612,6.12,1.836,4.896c3.672-1.224,6.732-1.836,10.404-2.448c3.672,0,6.732,0.612,9.792-1.224
			C73.602,159.403,73.602,156.955,71.766,155.731z" />
			<path
				d="M118.278,145.327c-3.06-1.836-7.344-1.224-11.016-0.612c-4.896,0.612-9.18,1.224-14.076,1.224
			c-2.448,0-2.448,3.06,0,3.672c4.284,0.612,7.956,1.224,12.24,1.224c3.672,0.612,9.18,1.224,12.24-0.612
			C120.114,148.999,120.114,146.551,118.278,145.327z" />
			<path
				d="M173.97,138.595c-5.508-1.836-11.628,0-17.136,0.612c-2.448,0-2.448,3.672,0,4.284c5.508,0.612,11.628,2.448,17.136,0.612
			C176.418,142.879,176.418,139.819,173.97,138.595z" />
			<path
				d="M224.154,138.595c-6.732-1.224-14.076,0-20.809,0.612c-3.06,0-3.06,4.284,0,4.284c6.732,0.612,14.076,1.836,20.809,0.612
			C227.214,143.491,227.214,138.595,224.154,138.595z" />
			<path
				d="M249.858,125.131c0,3.672,0.611,7.344-1.836,10.404c-2.448,3.06,1.224,6.732,4.284,4.284
			c3.672-3.672,5.508-9.792,4.896-14.688C256.59,120.235,249.858,120.235,249.858,125.131z" />
			<path
				d="M259.038,83.515c-1.224-1.836-4.284-1.836-5.508,0c-2.448,4.896,1.224,11.628-3.061,15.912
			c-2.447,3.06,1.225,6.732,4.284,4.284c2.448-2.448,3.672-5.508,4.284-8.568C260.262,90.859,260.874,86.575,259.038,83.515z" />
			<path
				d="M51.57,281.191c-3.06-1.224-6.732-0.612-9.792,0c-3.672,0-7.344,0.612-11.016,0.612c-3.06,0-3.06,4.896,0,4.896
			c3.672,0,7.344,0.612,11.016,0.612c3.672,0,6.732,0.612,9.792,0C54.63,286.699,54.63,281.803,51.57,281.191z" />
			<path
				d="M85.842,281.191c-4.896,1.225-10.404,1.225-15.912,1.225c-2.448,0-2.448,4.283,0,4.283c4.896,0,10.404,0,15.912,1.225
			C91.35,288.535,91.35,279.967,85.842,281.191z" />
			<path
				d="M91.962,248.755c-5.508,3.672-4.284,10.403-3.672,15.912c0,2.447,3.672,2.447,3.672,0c0-2.448,0.612-4.284,1.224-6.732
			c0.612-1.836,1.836-3.672,2.448-4.896C97.47,249.979,94.41,246.919,91.962,248.755z" />
			<path
				d="M131.13,224.887c-6.732-1.225-11.628,3.672-17.748,4.896c-1.836,0-1.224,3.061,0.612,3.061c3.06,0,5.508,0,8.568-0.612
			s6.12-0.612,8.568-1.224C134.19,230.395,134.19,225.5,131.13,224.887z" />
			<path
				d="M181.926,222.439c-2.448-3.06-7.344-1.836-10.404-1.224c-4.896,0.611-9.792,1.224-14.688,1.224
			c-2.448,0-2.448,3.061,0,3.672c4.896,0.612,9.792,1.225,14.688,1.225c3.06,0,7.956,1.836,10.404-1.225
			C183.15,224.887,183.15,223.663,181.926,222.439z" />
			<path
				d="M224.766,218.155c-2.447-1.224-6.119-1.224-9.18-0.611c-3.06,0.611-6.12,0.611-9.18,0.611c-3.672,0-3.672,4.896,0,5.509
			c3.06,0,6.12,0,9.18,0.611c3.061,0.612,6.12,0.612,9.18-0.611C227.214,223.051,227.214,219.379,224.766,218.155z" />
			<path
				d="M262.098,218.767c-3.672-4.284-11.628-2.448-16.523-0.612c-3.672,1.225-2.448,6.732,1.836,6.12
			c1.836-0.611,4.284-0.611,6.12-0.611c1.224,0,2.448,0.611,3.06,0.611c0.612,0.612,0,0,0.612,0.612c0,0.612,0,1.224,0,1.836
			c0,2.448-0.612,4.284-1.224,6.732c-1.225,4.896,6.119,6.731,7.344,1.836C265.158,230.395,266.382,223.663,262.098,218.767z" />
			<path
				d="M266.994,267.727c0-3.672-0.612-6.732-0.612-10.404s-6.12-3.672-6.12,0c0,3.061-0.611,6.12-0.611,9.181
			c0,3.06-1.225,7.344,1.836,9.792c1.224,1.224,3.06,1.224,4.284,0C268.218,274.459,267.606,270.788,266.994,267.727z" />
			<path
				d="M283.519,281.191c-3.061,3.061-6.12,6.12-9.792,8.568c-1.225,0.612-2.448,1.836-3.673,2.448h-0.611
			c0-1.225,0-3.061,0-4.284c0-3.061-4.896-3.672-5.508-0.612c-1.225,3.672-1.837,6.732,0,10.404c0,0.611,3.06,3.672,1.224,1.224
			c1.224,1.836,3.672,2.448,5.508,1.836c7.344-1.224,14.076-7.956,18.972-13.464C293.311,283.027,287.802,277.519,283.519,281.191z" />
			<path
				d="M294.534,86.575c-0.612-3.06-4.896-3.672-7.344-4.896c-1.225-0.612-2.448,0-3.061,0.612
			c-1.836-0.612-4.284-1.224-6.12-2.448c-2.447-1.836-5.508,1.224-3.06,3.06c1.836,1.836,3.672,3.06,6.12,4.284
			s4.896,3.06,7.956,3.672C291.475,92.083,295.146,90.247,294.534,86.575z" />
			<path
				d="M325.134,111.055c-6.12-3.672-11.016-8.568-17.748-11.628c-2.447-1.224-3.672,1.836-1.836,3.06
			c6.12,3.672,8.568,11.628,15.3,15.3C325.746,120.235,329.418,114.115,325.134,111.055z" />
			<path
				d="M352.062,141.043c-4.284-4.284-9.181-7.956-14.076-11.628c-2.448-1.836-5.508,1.224-3.672,3.672
			c3.672,4.896,7.344,9.792,11.628,14.076C350.227,150.835,356.346,144.715,352.062,141.043z" />
			<g>
				<path
					d="M374.094,168.583c0,0-0.611-0.612-1.224-1.224c-0.612,0-0.612-0.612-1.224-0.612c-1.225-0.612-2.448-1.836-3.672-2.448
				c-2.448-1.836-4.896-3.06-7.345-5.508c-2.447-1.836-4.896,1.224-3.06,3.06s3.06,3.672,4.896,4.896c0,0.612,0,1.836,1.225,2.448
				c1.224,1.224,3.06,2.448,4.284,3.672C371.646,177.763,377.766,172.255,374.094,168.583z" />
				<path d="M372.87,167.971L372.87,167.971C372.258,167.359,372.258,167.971,372.87,167.971z" />
			</g>
			<path
				d="M325.746,251.203c-3.672,1.225-4.896,3.673-6.732,6.732s-3.06,5.508-4.896,7.956c-2.448,3.06,2.448,6.12,4.896,3.672
			c2.448-1.836,3.673-4.284,5.509-6.731c1.836-2.448,4.283-4.896,4.896-7.956C330.03,253.04,328.194,250.591,325.746,251.203z" />
			<path
				d="M358.794,226.111c-0.612-1.836-3.06-1.836-4.284-1.224c-1.836,0.612-3.672,3.06-4.283,4.284
			c-2.448,3.672-4.896,6.731-8.568,9.18c-3.06,1.836-0.612,6.12,3.06,4.896c3.673-1.837,6.732-4.896,9.792-7.956
			C356.958,233.456,361.242,230.395,358.794,226.111z" />
			<path
				d="M373.482,191.839c-4.284,3.672-7.345,9.792-9.792,14.688c-1.225,3.061,3.06,6.12,4.896,3.061
			c1.836-2.448,3.061-4.896,5.508-7.345c1.837-1.836,3.673-3.06,4.896-4.896C382.662,193.675,377.766,188.167,373.482,191.839z" />
		</g>
	</g>
</svg>
