<svg version="1.1" xmlns="http://www.w3.org/2000/svg" xmlns:xlink="http://www.w3.org/1999/xlink" x="0px" y="0px" width="388.12px" height="388.12px" viewBox="0 0 388.12 388.12" style="enable-background: new 0 0 388.12 388.12" xml:space="preserve">
	<g>
		<path
			d="M273.903,141.607c5.508,0,9.792-6.12,6.732-11.628C253.707,87.751,239.02,36.344,200.463,2.072
		c-3.06-3.06-7.344-2.448-11.016,0c-41.615,33.66-64.872,87.516-82.62,136.476c-1.836,4.896,3.673,9.18,8.568,7.956
		c14.688,6.12,34.272,9.792,50.184,6.12c0.612,0,1.225-0.612,1.837-0.612c5.508,11.016,12.239,22.644,15.911,34.884
		c-26.928,4.896-37.332,45.288-43.451,66.708c-11.017,41.004-15.301,84.457-18.36,126.684c-0.612,6.121,6.731,9.793,11.628,6.732
		c18.972-11.627,37.944-25.092,59.364-30.6c22.644-5.508,52.02,6.732,73.439,12.24c5.508,1.223,11.628-3.672,9.792-9.793
		c-15.912-45.287-39.168-86.904-53.855-132.803c11.016-1.225,22.031-3.672,33.659-3.061c4.284,0,9.181-4.896,7.345-9.793
		c-9.792-23.867-20.809-47.124-26.316-72.215C248.812,143.444,261.052,142.22,273.903,141.607z M232.899,126.308
		c-6.12-0.612-9.18,6.12-7.344,11.016c-1.225,1.224-1.225,2.448-1.225,4.284c3.672,23.256,11.628,45.288,19.584,66.709
		c-11.016,0.611-22.031,3.672-33.66,3.059c-4.896-0.611-9.18,5.508-7.344,9.793c12.853,44.676,34.884,85.68,52.021,128.52
		c-19.584-5.508-40.393-11.016-60.588-9.18c-20.196,1.836-39.78,13.463-56.916,25.092c3.06-48.961,12.24-168.912,54.468-164.016
		c3.672,0.611,7.956-3.672,7.956-7.957c-2.448-18.36-11.628-34.884-20.196-51.408c-3.06-5.508-8.567-4.284-12.239-1.224
		c-0.612-0.612-1.225-1.224-2.448-1.224c-7.345-1.224-14.688-1.224-22.032-1.224s-14.076-1.836-20.808-3.672
		c20.195-41.616,37.943-86.904,72.827-118.116c30.601,29.988,45.288,72.216,66.097,108.936
		C251.871,127.532,242.691,127.532,232.899,126.308z" />
	</g>
</svg>
