<svg version="1.1" xmlns="http://www.w3.org/2000/svg" xmlns:xlink="http://www.w3.org/1999/xlink" x="0px" y="0px" width="304.269px" height="304.27px" viewBox="0 0 304.269 304.27" style="enable-background: new 0 0 304.269 304.27" xml:space="preserve">
	<g>
		<g>
			<path
				d="M160.743,16.608c-0.612-3.06-3.672-4.896-6.12-6.732c-3.672-3.06-7.344-5.508-10.404-8.568
			c-1.836-1.836-4.896-1.836-6.12,0.612c-3.06,6.732-6.12,13.464-9.18,20.808c-1.224,3.06,3.06,6.12,4.896,2.448
			c3.06-4.896,6.12-9.792,8.568-15.3c2.448,1.836,4.284,3.672,6.732,5.508s5.508,4.896,9.18,4.896
			C160.13,20.893,161.354,19.057,160.743,16.608z" />
			<path
				d="M122.798,42.925c-2.448,2.448-4.896,5.508-6.12,8.568c-1.836,3.672-3.672,7.956-0.612,11.628
			c0.612,1.224,3.06,1.224,3.672,0c1.836-2.448,1.224-4.896,2.448-7.956c0.612-3.06,1.836-6.12,4.284-9.18
			C127.694,43.537,125.247,40.477,122.798,42.925z" />
			<path
				d="M105.663,80.869c-0.612,5.508-3.06,10.404-5.508,15.3c-1.836,3.672-5.508,6.732-5.508,11.628
			c0,2.448,2.448,4.284,4.896,2.448c3.672-2.448,4.896-7.344,6.732-11.628c2.448-5.508,3.672-11.628,3.672-17.748
			C109.946,78.42,106.274,78.42,105.663,80.869z" />
			<path
				d="M124.022,111.469c-3.672,0.612-7.344,2.448-11.628,3.06c-3.672,0.612-7.344,0.612-11.016,0.612
			c-3.06,0-3.06,4.896,0,4.896c7.956,0,18.972,1.224,25.092-3.672C128.918,113.917,126.47,110.856,124.022,111.469z" />
			<path
				d="M182.163,43.537c-1.836-2.448-3.672-4.896-6.12-7.344c-1.836-1.836-4.284,0.612-2.448,2.448
			c1.836,2.448,3.672,5.508,5.508,8.568c1.225,2.448,3.061,5.508,6.12,6.12c1.225,0,2.448-1.224,2.448-2.448
			C187.058,47.821,183.999,45.373,182.163,43.537z" />
			<path
				d="M210.926,82.093c-4.284-7.344-11.628-12.852-18.972-15.912c-1.836-0.612-3.061,1.836-1.836,2.448
			c6.731,4.284,11.016,10.404,14.688,17.136C206.642,90.049,212.762,86.376,210.926,82.093z" />
			<path
				d="M218.882,104.737C218.882,104.125,218.27,104.125,218.882,104.737c-0.612-1.836-1.224-3.06-2.448-4.896
			c-1.224-1.836-4.896-0.612-3.672,1.836c0.612,1.224,0.612,2.448,1.225,3.672c-0.612,0.612-0.612,1.224-1.225,1.836
			c0,0.612,0,0.612,0,0.612c-0.611,0-0.611,0.612-1.836,0.612c-3.672,0-7.956-1.224-11.628-1.836
			c-6.12-1.224-8.568,7.344-2.448,9.18c7.956,2.448,23.256,4.896,23.868-7.344C220.718,106.573,220.106,105.349,218.882,104.737z" />
			<path
				d="M123.411,128.604c-3.672,1.836-6.732,4.896-9.18,8.568c-1.836,3.06-3.672,7.956-2.448,11.628
			c1.224,1.836,4.284,1.836,4.896,0c1.224-2.448,1.224-6.12,1.836-8.568c1.224-3.06,3.672-6.12,6.732-7.344
			C128.307,131.053,125.858,127.993,123.411,128.604z" />
			<path
				d="M106.274,169.608c-6.12,8.568-11.628,17.136-14.688,26.928c-1.836,4.284,5.508,6.732,7.344,1.837
			c3.06-9.181,6.732-17.748,11.628-26.316C111.17,168.996,107.499,167.16,106.274,169.608z" />
			<path
				d="M83.019,223.465c-2.448,6.731-5.508,12.852-8.568,19.584c-2.448,5.508-6.12,11.628-5.508,17.748
			c0,2.447,3.672,3.672,4.896,1.224c3.06-4.896,4.284-11.016,6.12-16.524c2.448-6.731,4.896-13.464,6.12-20.808
			C86.69,222.24,83.63,221.629,83.019,223.465z" />
			<path
				d="M84.243,284.665c-4.284,0.611-7.956,4.896-11.628,6.731c-2.448,1.224-5.508,2.448-8.568,4.284
			c-0.612-3.672-0.612-7.956-0.612-11.628c0-2.448-3.672-2.448-4.284,0c-0.612,4.896,0,10.404-1.224,15.912
			c-0.612,3.06,2.448,5.508,4.896,3.672c4.284-1.836,8.568-3.672,12.852-6.12c4.284-1.836,10.404-4.896,11.016-9.792
			C87.915,285.889,86.079,284.053,84.243,284.665z" />
			<path
				d="M116.678,258.349c-2.448,1.224-4.284,3.06-6.732,4.896c-3.06,1.837-6.732,3.673-9.792,5.509
			c-2.448,1.224-0.612,4.896,2.448,3.672c6.12-2.448,14.076-4.896,17.748-10.404C121.574,259.572,119.126,257.125,116.678,258.349z" />
			<path
				d="M152.174,224.688c-1.836,2.448-3.672,4.896-6.12,7.344c-3.06,2.448-6.12,4.284-9.792,6.12
			c-3.06,1.836-0.612,5.508,2.448,4.284c6.732-3.06,15.912-6.731,18.36-14.688C158.294,225.301,154.623,222.24,152.174,224.688z" />
			<path
				d="M180.938,249.78c-0.611-3.672-4.283-7.344-6.731-10.403c-3.672-3.672-7.344-7.345-11.017-10.404
			c-1.836-1.836-4.896,0.612-3.06,3.06c3.06,3.672,6.12,6.732,9.18,10.404c2.448,3.06,4.284,7.344,6.732,9.792
			C177.878,254.677,181.55,252.229,180.938,249.78z" />
			<path
				d="M206.031,272.425c-1.225-2.448-4.896-1.836-7.345-3.061c-2.447-1.224-4.283-4.283-6.119-6.731
			c-1.225-2.448-4.896-0.612-3.673,2.448c1.836,3.672,3.673,7.344,6.732,9.792c2.448,1.836,7.956,3.672,10.404,0.611
			C206.642,274.261,206.642,273.036,206.031,272.425z" />
			<path
				d="M232.958,297.517c-5.508-3.06-11.628-6.12-17.136-8.568c-2.448-1.224-4.284,1.836-1.836,3.061
			c5.508,3.672,10.403,7.956,15.912,11.016C232.958,304.86,236.63,299.353,232.958,297.517z" />
			<path
				d="M244.586,276.097c-1.224-3.061-2.448-6.732-5.508-7.956c-2.448-1.224-4.896,1.224-3.672,3.672
			c1.224,1.836,2.447,3.672,3.672,5.508c1.836,3.061,2.448,6.12,3.06,9.792c0,2.448,4.284,3.061,4.284,0
			C246.422,283.44,245.81,279.769,244.586,276.097z" />
			<path
				d="M232.958,249.78c-1.224-3.672-2.448-7.344-3.672-11.016c-1.225-3.672-1.225-7.956-1.225-11.628
			c-0.611-4.284-6.119-4.284-6.119,0c-0.612,7.956,4.283,17.748,7.956,24.479C230.51,253.452,233.571,251.616,232.958,249.78z" />
			<path
				d="M216.434,202.656c-1.224-3.06-2.447-6.12-3.672-9.792c-1.224-3.06-1.224-6.731-1.836-9.792c-0.611-3.06-5.508-3.06-6.12,0
			c-1.836,7.345,4.284,15.912,7.956,22.032C213.987,207.553,217.659,205.104,216.434,202.656z" />
			<path
				d="M203.583,159.205c-1.224-3.061-2.448-6.12-3.672-9.181c-1.225-3.06-1.225-6.732-1.836-9.792
			c-0.612-4.284-6.732-3.06-7.345,1.224c-0.611,7.344,4.284,15.3,7.956,21.42C200.522,165.324,204.806,162.265,203.583,159.205z" />
			<path
				d="M180.938,111.469c-1.224,0-3.06,1.224-3.06,3.06c0,2.448,1.836,4.284,2.448,6.12c0.611,2.448,0.611,4.896,1.224,7.344
			c0,3.06,4.896,3.06,4.896,0C187.058,122.484,187.67,112.081,180.938,111.469z" />
		</g>
	</g>
</svg>
