<svg version="1.1" xmlns="http://www.w3.org/2000/svg" xmlns:xlink="http://www.w3.org/1999/xlink" x="0px" y="0px" width="388.251px" height="388.251px" viewBox="0 0 388.251 388.251" style="enable-background: new 0 0 388.251 388.251" xml:space="preserve">
	<g>
		<g>
			<path
				d="M47.25,168.443c-9.18,4.284-12.24,19.584-14.688,28.152c-1.224,4.283,4.896,5.508,6.12,1.836
			c1.836-4.896,3.672-9.792,6.12-14.077c1.836-4.284,5.508-7.956,7.344-12.24C52.757,169.055,49.697,167.219,47.25,168.443z" />
			<path
				d="M74.177,121.931c-8.568,5.508-11.016,18.972-14.076,28.152c-0.612,2.448,3.06,3.06,3.672,1.224
			c1.836-4.896,3.672-9.792,6.12-14.688c1.836-4.284,4.896-7.344,7.344-11.016C79.073,123.155,76.625,120.707,74.177,121.931z" />
			<path
				d="M104.166,73.583c-2.448,3.672-4.284,7.956-6.732,11.628c-3.06,4.284-6.12,7.956-9.792,11.628
			c-1.224,1.224,0.612,3.672,2.448,2.448c6.732-6.12,17.136-14.076,17.136-24.48C107.226,72.359,104.777,72.359,104.166,73.583z" />
			<path
				d="M140.885,22.175c-6.732,3.672-11.628,11.628-11.016,18.972c0,3.672,4.896,3.672,5.508,0
			c0.612-6.732,6.732-9.792,9.792-15.3C145.781,23.399,143.333,20.951,140.885,22.175z" />
			<path
				d="M190.457,5.039c-7.344-4.284-15.3-6.732-23.256-3.672c-7.344,3.06-11.628,9.792-15.912,15.912
			c-0.612,1.224,1.224,2.448,1.836,1.224c9.792-11.016,20.196-15.3,34.272-7.956C190.457,12.995,194.13,6.875,190.457,5.039z" />
			<path
				d="M217.386,31.355c-3.061-2.448-4.896-4.896-6.732-7.956c-1.836-3.06-5.508-0.612-4.284,2.448
			c1.836,3.672,3.672,6.732,6.732,9.792c2.448,2.448,6.731,6.12,9.792,4.284c0.611-0.612,1.224-1.224,1.224-1.836
			C223.505,34.415,219.833,33.191,217.386,31.355z" />
			<path
				d="M263.897,69.911c-2.448-3.06-6.12-4.284-8.568-6.12c-3.06-2.448-5.508-4.896-8.567-7.344
			c-1.836-1.836-4.896,1.224-3.061,3.06c2.448,2.448,4.896,5.508,7.344,7.956c3.061,2.448,6.12,6.732,10.404,6.732
			C263.897,73.583,265.121,71.135,263.897,69.911z" />
			<path
				d="M298.169,99.899c-1.224-3.672-4.896-4.284-8.567-5.508c-3.672-1.836-6.732-4.284-9.181-7.956
			c-1.836-3.06-5.508-0.612-4.283,2.448c1.836,3.672,4.283,6.732,7.956,9.18c3.06,2.448,7.956,6.732,11.628,5.508
			C296.945,103.571,298.169,101.735,298.169,99.899z" />
			<path
				d="M331.218,140.291c-1.225-3.672-6.732-5.508-9.792-7.344c-4.284-2.448-7.956-5.508-11.017-9.792
			c-1.836-2.448-5.508-0.612-4.284,2.448c2.448,4.896,6.12,8.568,9.792,11.628c3.061,2.448,8.568,7.956,12.853,6.732
			C330.605,143.351,331.829,141.515,331.218,140.291z" />
			<path
				d="M354.474,177.623c-6.12-6.12-11.017-12.852-17.748-18.972c-2.448-2.448-6.12,1.224-3.672,3.672
			c4.896,5.508,7.956,11.628,12.239,17.136c-2.447,1.224-6.119,1.836-8.567,3.06c-6.12,2.448-2.448,11.628,3.672,8.568
			c4.896-2.448,9.792-3.672,14.076-7.956C356.31,181.907,356.31,179.459,354.474,177.623z" />
			<path
				d="M79.073,200.879c-4.896-1.224-10.404-0.611-14.688,0c-2.448,0-5.508,0-7.956,0.612c-1.224,0-1.836,0-3.06,0.612
			c-0.612,0-2.448,2.447-1.224,1.224c-0.612,0.612-0.612,0.612-0.612,1.224l0,0l0,0c0,0.612,0,0.612,0.612,1.225
			c-1.224-1.225,0.612,0.611,0.612,1.224c0.612,0.612,1.836,0.612,2.448,0.612c2.448,0,4.896,0.612,7.956,0.612
			c4.896,0,11.016,1.224,15.912,0C82.746,206.387,82.746,201.491,79.073,200.879z" />
			<path
				d="M126.197,197.819c-7.344-2.448-16.524-0.612-23.868,0c-3.672,0-3.672,6.12,0,6.12c7.344,0,16.524,1.836,23.868,0
			C128.646,202.715,128.646,199.043,126.197,197.819z" />
			<path
				d="M301.842,191.087c-4.896,3.671-11.017,3.06-16.524,1.224c-2.448-0.612-3.672,2.448-1.836,3.672
			c7.344,4.284,14.076,3.672,22.032,2.448C312.245,196.596,307.961,186.191,301.842,191.087z" />
			<path
				d="M265.733,197.819c-3.06-0.612-6.12,0-9.18,0c-3.672,0-7.345-0.612-11.017-1.836c-2.447-0.612-3.672,2.448-1.836,3.672
			c3.061,1.836,6.732,3.06,10.404,3.672s7.956,1.836,11.628,0.612C268.793,202.715,268.793,198.432,265.733,197.819z" />
			<path
				d="M122.525,217.403c-0.612,7.344-5.508,12.24-7.344,18.972c-1.224,4.284,4.284,6.12,6.732,3.061
			c4.284-5.509,6.732-14.688,6.732-22.032C128.033,213.731,122.525,213.731,122.525,217.403z" />
			<path
				d="M106.001,262.079c-4.284,7.344-7.344,15.3-11.016,22.645c-2.448,4.896,4.896,9.18,7.344,4.283
			c3.672-7.956,6.12-16.523,9.18-24.479C112.733,261.467,107.837,259.631,106.001,262.079z" />
			<path
				d="M87.029,318.383c-4.284,3.672-6.732,7.956-9.792,12.853c-2.448,4.284-5.508,10.403-5.508,15.3
			c0,3.672,4.896,4.284,6.732,1.836c2.448-3.672,3.06-8.568,4.896-12.852c1.836-4.896,3.672-9.792,7.344-13.464
			C92.538,319.607,89.478,316.547,87.029,318.383z" />
			<path
				d="M88.865,377.135c-4.896,0-9.792,1.225-14.688,1.837c-3.06,0-5.508,0.611-8.568,0.611c1.224-2.448,3.06-4.896,4.896-7.344
			s-1.224-5.508-3.06-3.06c-4.896,3.672-8.568,7.956-11.628,12.852c-1.224,2.448,0.612,6.12,3.672,6.12
			c9.792,0,23.256,1.224,31.212-4.896C92.538,381.419,91.925,377.135,88.865,377.135z" />
			<path
				d="M142.721,377.747c-4.896-1.224-9.792-0.612-14.688,0c-5.508,0.612-11.016,0.612-15.912,0.612c-2.448,0-2.448,3.06,0,3.06
			c5.508,0,11.016,0.612,15.912,0.612c4.896,0.612,9.792,1.224,14.688,0C145.169,382.031,145.169,378.359,142.721,377.747z" />
			<path
				d="M199.638,381.419c-2.448-1.836-5.508-1.224-8.568-0.611c-4.284,0-8.568-0.612-12.24-2.448
			c-1.836-0.612-3.672,2.448-1.224,3.672c3.672,1.836,7.344,3.06,11.628,3.672c3.06,0.612,7.344,1.836,10.404,0
			C201.474,384.479,201.474,382.644,199.638,381.419z" />
			<path
				d="M246.149,377.747c-3.06-1.836-7.344-0.612-11.016-0.612c-4.896,0-9.181,0.612-14.076,0.612c-3.061,0-3.061,4.896,0,4.896
			c4.284,0,7.956,0.611,12.24,0.611c3.672,0,8.567,1.225,12.239-0.611C247.985,381.419,247.985,378.971,246.149,377.747z" />
			<path
				d="M298.169,373.463c-8.567,0.612-17.136,0.612-24.479,4.896c-2.448,1.224-0.612,6.12,1.836,4.896
			c7.344-3.06,15.3-2.447,22.644-2.447C303.065,380.808,303.065,372.852,298.169,373.463z" />
			<path
				d="M326.934,361.835c-3.061-3.672-5.508-6.731-7.344-11.016c-1.837-3.061-3.061-7.956-6.12-9.792
			c-1.836-0.612-4.284,0-4.896,1.836c-0.612,4.284,2.448,7.956,4.284,11.628c3.06,4.284,6.12,7.956,9.792,11.016
			C325.709,367.955,329.382,364.283,326.934,361.835z" />
			<path
				d="M303.678,318.383c-3.673-3.672-7.345-7.956-10.404-11.628c-2.448-3.06-3.672-7.344-7.344-8.567
			c-1.225-0.612-3.061,0.611-3.672,1.836c-1.225,4.284,3.06,7.956,5.508,11.016c3.672,4.284,7.956,7.956,11.628,11.628
			C302.453,325.115,306.125,320.831,303.678,318.383z" />
			<path
				d="M274.302,265.14c-3.672-4.284-4.284-9.792-5.509-15.301c-0.611-4.896-6.731-3.06-7.344,1.225
			c-0.612,6.731,3.672,14.688,7.956,18.972C272.466,272.483,276.749,268.199,274.302,265.14z" />
			<path
				d="M254.105,221.688c-1.836-2.448-3.061-4.896-3.672-7.345c-1.225-3.06-0.612-6.731-2.448-9.18
			c-1.224-1.836-4.284-0.612-5.508,0.612c-2.448,3.06-0.612,7.956,1.224,11.628c1.836,3.06,3.672,6.12,6.12,9.18
			C252.27,229.031,256.554,224.747,254.105,221.688z" />
		</g>
	</g>
</svg>
