<svg version="1.1" xmlns="http://www.w3.org/2000/svg" xmlns:xlink="http://www.w3.org/1999/xlink" x="0px" y="0px" width="389.313px" height="389.313px" viewBox="0 0 389.313 389.313" style="enable-background: new 0 0 389.313 389.313" xml:space="preserve">
	<g>
		<path
			d="M360.447,87.052C308.428-12.092,171.952-18.212,83.824,31.36C12.832,71.14-12.26,154.984,5.488,230.872
		c17.748,75.888,91.188,153,173.196,151.775c3.06,3.061,9.792,1.836,9.792-4.283c0.612-13.465,0.612-26.316,1.836-39.78
		c0.612-9.792,1.836-22.032,8.568-29.376c2.448-3.061,2.448-7.344-1.224-9.181c-3.672-1.836-6.732-2.447-9.181-1.224
		c-0.612-2.448-2.448-4.896-6.12-4.896c-53.856,2.447-94.248-23.868-104.652-78.336c-9.18-48.349,14.076-101.592,54.468-127.908
		c125.459-81.396,291.924,124.848,157.896,217.26c0,0,0,0-0.613,0.612c-4.895-12.853-11.627-23.868-21.42-34.272
		c-3.059-3.06-8.568-2.448-10.404,1.225c-12.238,24.479-24.479,48.96-36.719,73.439c-1.836,3.672-0.613,8.568,4.283,9.792
		c34.271,9.18,67.32,24.48,102.205,32.437c5.508,1.224,10.402-4.284,7.344-9.792c-6.732-13.464-14.076-27.54-25.092-37.332
		C407.572,300.027,403.287,169.06,360.447,87.052z M299.248,331.24c-7.957,3.06-5.508,15.3,2.447,14.075
		c5.508,4.896,11.629,17.137,16.523,27.54c-26.928-7.956-53.242-18.972-80.783-26.928c9.793-18.972,18.973-37.944,28.764-56.916
		c5.508,6.732,9.18,14.076,12.852,22.032c2.449,5.508,9.182,5.508,12.24,1.836c1.225,1.224,3.061,1.224,4.896,0
		c70.992-41.616,74.664-122.4,29.377-186.048c-42.229-59.364-121.789-87.516-189.109-56.304
		c-112.608,52.632-91.8,252.756,45.9,237.456c-6.732,16.524-6.12,50.185-5.508,64.872c-33.66-10.403-64.872-20.195-93.024-42.84
		c-27.54-22.644-47.736-53.855-59.364-86.903c-22.644-64.873-7.344-137.7,44.676-183.601c69.156-60.588,194.005-61.2,258.265,4.896
		C392.883,132.34,402.064,293.296,299.248,331.24z" />
	</g>
</svg>
