<svg version="1.1" xmlns="http://www.w3.org/2000/svg" xmlns:xlink="http://www.w3.org/1999/xlink" x="0px" y="0px" width="391.11px" height="391.109px" viewBox="0 0 391.11 391.109" style="enable-background: new 0 0 391.11 391.109" xml:space="preserve">
	<g>
		<g>
			<path
				d="M366.653,93.636C346.457,45.9,306.064,23.868,255.268,25.092c-8.567,0-8.567,14.076,0,13.464
			c119.952-2.448,130.969,143.82,94.248,229.5c-41.004,95.473-147.491,132.192-239.903,90.576
			C-34.207,294.372,9.857,38.556,170.201,33.66c6.12,0,6.12-9.18,0-9.792c-88.74-6.12-144.432,75.888-158.508,154.224
			c-6.732,37.944-3.672,80.784,12.852,116.28c20.808,44.676,58.752,70.38,104.04,86.292
			c104.652,37.332,207.467-29.988,241.74-129.132C387.46,203.184,387.46,141.373,366.653,93.636z" />
			<path
				d="M278.525,3.06c-6.12-6.732-18.36-0.612-24.48,1.836c-12.852,4.284-25.092,9.18-37.944,14.076
			c-4.896,1.836-7.344,7.956-3.06,11.628c13.464,12.852,30.6,20.808,41.616,35.496c4.284,5.508,12.852,0.612,9.18-5.508
			c-7.956-14.076-20.808-22.644-32.436-33.048c7.955-3.06,15.911-6.12,23.867-9.18c7.345-2.448,19.584-3.06,24.48-9.792
			C280.361,7.344,279.749,4.284,278.525,3.06z" />
		</g>
	</g>
</svg>
