<svg version="1.1" xmlns="http://www.w3.org/2000/svg" xmlns:xlink="http://www.w3.org/1999/xlink" x="0px" y="0px" width="334.987px" height="334.987px" viewBox="0 0 334.987 334.987" style="enable-background: new 0 0 334.987 334.987" xml:space="preserve">
	<g>
		<path
			d="M273.171,286.963c68.544-50.185,83.231-137.087,28.151-206.244C245.631,12.175,141.591-16.589,64.479,35.431
		C4.503,75.823-8.961,160.279,5.115,226.375c12.852,63.036,64.872,119.952,132.804,93.023c6.12-2.447,3.672-11.628-2.448-9.792
		c-63.036,15.301-101.592-30.6-115.056-86.903C6.339,164.563,19.803,95.407,65.703,55.015
		c61.2-54.468,159.121-29.376,211.752,23.256c59.363,59.364,55.08,144.432-10.404,194.003c2.448-8.567,4.284-17.136,6.12-25.703
		c1.836-6.732-6.732-11.629-11.628-6.732c-23.256,22.644-49.572,40.392-78.336,55.08c-6.12,3.06-3.672,11.016,1.836,12.852
		c37.943,14.076,78.948,13.464,118.116,17.137c7.956,0.611,8.567-9.792,3.672-13.465
		C295.814,302.875,284.799,294.307,273.171,286.963z M251.751,290.022c-0.612,4.284,3.06,6.732,6.12,5.509
		c7.344,4.283,14.076,8.567,20.808,13.464c-25.092-1.836-49.572-3.061-74.052-9.792c18.359-10.404,35.496-22.645,51.408-36.108
		C254.811,271.663,253.587,280.843,251.751,290.022z" />
	</g>
</svg>
