<svg version="1.1" xmlns="http://www.w3.org/2000/svg" xmlns:xlink="http://www.w3.org/1999/xlink" x="0px" y="0px" width="322.111px" height="322.111px" viewBox="0 0 322.111 322.111" style="enable-background: new 0 0 322.111 322.111" xml:space="preserve">
	<g>
		<g>
			<path
				d="M308.454,121.711C276.018,42.763,197.07-4.973,112.002,18.283C40.398,37.867,0.618,114.367,0.006,184.747
			c-0.612,68.544,45.288,130.968,118.116,124.235c5.508-0.611,6.12-8.567,0-9.18C-26.31,291.234-3.666,81.931,107.106,37.255
			c72.828-29.988,145.044,11.016,179.928,75.276s28.764,152.388-58.752,157.284c-10.404,0.612-10.404,16.524,0,16.524
			C320.694,282.055,339.054,195.763,308.454,121.711z" />
			<path
				d="M250.926,295.519c-7.956-4.284-18.972-3.672-27.54-5.508c-7.956-1.836-15.3-4.284-22.644-7.344
			c7.344-7.956,13.464-17.137,22.644-23.256c5.509-3.673,0.612-11.629-4.896-8.568c-14.076,6.12-22.645,18.972-34.884,27.54
			c-4.284,3.672-5.509,10.404,0,13.464c11.016,6.12,23.256,10.404,35.496,14.076c9.791,2.448,22.644,6.12,31.823,1.836
			C255.822,304.087,255.21,297.354,250.926,295.519z" />
		</g>
	</g>
</svg>
