<svg version="1.1" xmlns="http://www.w3.org/2000/svg" xmlns:xlink="http://www.w3.org/1999/xlink" x="0px" y="0px" width="370.947px" height="370.946px" viewBox="0 0 370.947 370.946" style="enable-background: new 0 0 370.947 370.946" xml:space="preserve">
	<g>
		<g>
			<path
				d="M301.741,42.977c-7.956-4.896-14.688,7.344-6.731,12.24c69.155,42.84,66.708,159.119,34.884,224.604
			c-43.452,89.352-153.612,91.189-230.112,49.572c-67.32-36.721-93.024-108.324-70.38-179.316
			C51.433,78.473,115.693,28.289,185.461,8.093c5.508-1.836,3.06-9.18-2.448-7.956c-82.008,12.24-148.716,78.948-171.36,157.896
			c-24.48,87.516,26.928,157.284,102.816,194.616c83.844,41.004,189.108,11.629,230.724-73.439
			C378.853,209.441,374.569,87.041,301.741,42.977z" />
			<path
				d="M272.977,67.457c-7.956-3.672-14.688,7.956-6.732,11.628c123.624,54.468,29.376,220.933-77.724,223.991
			c-61.812,1.836-124.236-41.615-120.564-107.1c3.672-60.588,56.304-111.384,105.876-140.148c3.672-2.448,1.224-9.18-3.06-7.344
			c-60.588,23.868-108.936,82.008-116.28,147.492c-7.956,72.828,64.26,115.668,127.908,120.564
			C307.249,325.109,408.229,126.821,272.977,67.457z" />
			<path
				d="M309.697,18.497c-9.792-5.508-22.032-4.896-33.048-5.508c-14.688-0.612-29.376-0.612-43.452-0.612
			c-4.896,0-7.956,4.896-7.344,9.18c5.508,26.928,13.464,54.468,27.54,77.724c2.448,4.284,10.404,1.224,8.568-3.672
			c-8.568-22.644-15.912-45.288-20.196-68.544c9.792,0,19.584,0,29.376,0.612c11.628,0.612,23.868,3.672,35.496,2.448
			C312.145,29.513,315.817,22.169,309.697,18.497z" />
		</g>
	</g>
</svg>
