<svg version="1.1" xmlns="http://www.w3.org/2000/svg" xmlns:xlink="http://www.w3.org/1999/xlink" x="0px" y="0px" width="379.84px" height="379.84px" viewBox="0 0 379.84 379.84" style="enable-background: new 0 0 379.84 379.84" xml:space="preserve">
	<g>
		<g>
			<path
				d="M23.656,35.843c-3.06-0.612-5.508-0.612-8.568,0c-3.06,0-5.508,0-8.568,0.612c-4.896,0-4.896,7.344,0,7.344
			c3.06,0,5.508,0,8.568,0.612c3.06,0,5.508,0.612,8.568,0C27.328,42.575,27.328,36.455,23.656,35.843z" />
			<path
				d="M79.348,40.739c-2.448-3.672-6.732-2.448-10.404-2.448c-4.896,0-9.18-0.612-13.464-2.448
			c-3.672-1.836-6.12,4.896-3.06,6.732c4.284,2.448,8.568,3.06,13.464,3.672c4.284,0.612,10.404,1.836,13.464-1.836
			C79.959,43.799,79.959,41.963,79.348,40.739z" />
			<path
				d="M116.68,40.739c-4.284-5.508-15.3-4.284-21.42-3.672c-3.672,0-3.672,5.508,0,5.508c3.06,0,6.732,0.612,9.792,1.224
			c3.06,0.612,6.12,2.448,9.18,2.448C117.292,45.635,117.904,42.575,116.68,40.739z" />
			<path
				d="M6.52,73.787c0-3.672-0.612-7.956-0.612-11.628c0-3.06-4.896-3.06-4.896,0c0,3.672-0.612,6.732-0.612,10.404
			c0,4.284-1.224,9.18,0.612,13.464c1.224,1.836,4.284,1.836,5.508,0C7.744,81.743,7.132,77.459,6.52,73.787z" />
			<path
				d="M8.355,118.463c0-1.836-3.06-1.836-3.06,0c-1.224,10.404-2.448,20.196,2.448,29.988c1.224,1.836,4.896,1.224,4.896-1.224
			C11.416,137.435,8.968,128.255,8.355,118.463z" />
			<path
				d="M14.476,175.379c0-1.836-3.06-1.836-3.06,0c-1.224,9.18-3.06,20.196-1.224,29.377c0.612,2.447,4.896,2.447,5.508,0
			C17.536,195.575,15.7,184.559,14.476,175.379z" />
			<path
				d="M37.12,262.896c-1.836-4.284-4.896-7.344-6.12-11.628c-1.836-4.896-3.06-10.404-3.672-15.3c0-1.836-3.06-2.448-3.06,0
			c-0.612,9.792,0.612,24.479,9.792,30.6C35.896,267.18,38.344,264.731,37.12,262.896z" />
			<path
				d="M59.764,307.571c-2.448-8.567-9.18-15.3-13.464-22.032c-1.224-1.836-3.672-0.611-3.06,1.225
			c3.06,7.956,6.732,15.912,12.24,22.644C56.704,311.855,60.375,310.632,59.764,307.571z" />
			<path
				d="M100.156,344.292c-2.448-3.061-7.956-3.673-11.628-5.509c-4.284-1.836-7.956-4.283-11.016-6.731
			c-1.836-1.836-4.896,0.611-3.06,3.06c3.06,3.672,6.732,6.732,11.016,9.181c3.672,2.447,8.568,5.508,13.464,4.283
			C101.379,348.575,101.379,345.516,100.156,344.292z" />
			<path
				d="M155.236,358.979c-7.956-0.612-17.136,0.612-24.48-1.836c-1.836-0.612-3.672,2.448-1.224,3.672
			c7.956,4.284,17.136,4.896,26.316,4.284C158.908,364.487,158.908,359.592,155.236,358.979z" />
			<path
				d="M218.272,352.247c-4.284,0-7.345,1.836-11.017,3.673c-4.284,1.836-9.18,3.06-14.076,3.06c-3.672,0-4.284,6.12,0,6.12
			c4.896,0,9.792-0.612,14.688-1.836c4.284-1.225,9.792-2.448,13.464-5.508C223.168,355.92,221.332,352.247,218.272,352.247z" />
			<path
				d="M266.62,328.38c-3.672,3.06-6.732,6.731-10.404,10.403c-4.896,4.284-11.016,6.732-16.523,9.181
			c-3.061,1.224-1.836,4.896,1.224,4.283c11.628-1.836,25.704-7.956,30.601-19.584C273.353,328.991,269.68,325.319,266.62,328.38z" />
			<path
				d="M305.176,290.436c-2.447,2.448-4.896,6.12-7.344,8.568c-3.06,3.672-6.731,7.344-11.016,10.403
			c-1.836,1.225,0,4.896,1.836,3.672c7.344-4.283,18.972-10.403,20.808-20.195C310.072,290.436,307.012,288.6,305.176,290.436z" />
			<path
				d="M326.596,231.071c-4.896,9.181-7.344,19.584-12.239,28.765c-1.225,2.447,2.447,4.896,3.672,2.447
			c6.12-8.567,11.628-18.359,13.464-28.764C332.104,230.46,328.432,228.012,326.596,231.071z" />
			<path
				d="M333.328,173.543c-4.896,5.508-4.284,14.076-3.672,20.809c0,3.672,5.508,3.672,5.508,0c0-3.06,0-5.508,0.612-8.568
			c0.611-3.06,1.836-6.12,2.448-9.792C338.224,173.543,335.776,171.095,333.328,173.543z" />
			<path
				d="M338.224,123.971c-1.224-3.06-4.896-3.06-5.508,0c-2.447,6.732,0,15.912,0.612,22.644c0,3.06,4.284,3.06,4.284,0
			C338.224,139.883,340.672,131.315,338.224,123.971z" />
			<path
				d="M365.152,108.671c-4.896-1.836-11.628,1.224-17.137,2.448c-1.224,0-1.224,1.836,0,2.448
			c5.509,1.224,11.629,4.284,17.137,2.448C368.212,114.791,368.212,109.895,365.152,108.671z" />
			<path
				d="M370.048,77.459c-1.224-0.612-3.06-0.612-3.672,0c0,0,0,0-0.612,0c-1.224,0.612-1.836,2.448-1.224,3.672
			c0.612,3.06,4.896,4.284,6.732,6.732c1.836,2.448,3.06,5.508,3.06,8.568c0.612,3.06,4.896,1.836,5.508-0.612
			C379.84,89.087,376.168,82.355,370.048,77.459z" />
			<path
				d="M357.196,54.815c-1.836-5.508-4.896-11.016-9.792-14.688c-3.061-1.836-6.732,1.836-4.896,4.896
			c3.061,4.284,6.732,7.344,9.792,11.628C353.524,59.099,358.42,57.875,357.196,54.815z" />
			<path
				d="M333.94,28.499c-2.448-3.06-5.509-6.732-8.568-9.18c-2.448-2.448-6.732-6.12-10.404-4.284
			c-1.836,0.612-2.447,1.836-2.447,4.284c0.611,3.672,4.896,4.896,7.956,6.732c3.06,1.836,6.119,4.896,9.18,7.344
			C333.328,34.007,336.388,30.947,333.94,28.499z" />
			<path
				d="M302.116,18.707c-4.284,3.672-8.568,6.732-12.853,10.404c-3.672,3.06-7.956,7.956-7.956,13.464
			c0,2.448,3.673,4.284,5.509,2.448c3.06-3.672,4.896-7.956,7.956-11.628c3.06-3.672,7.344-7.344,10.403-11.016
			C307.624,19.931,304.564,16.871,302.116,18.707z" />
			<path
				d="M273.964,52.979c-6.731,3.06-14.076,6.12-18.359,12.852c-3.061,4.896,4.896,9.18,7.344,4.284
			c3.06-6.12,7.956-9.18,13.464-12.24C280.084,56.039,277.024,51.755,273.964,52.979z" />
			<path
				d="M241.528,94.595c-3.672,3.06-6.12,6.732-8.568,11.016c-2.448,4.284-5.508,10.404-6.12,15.3
			c-0.611,4.284,4.896,7.344,7.345,3.06c1.836-3.672,3.06-8.568,4.283-12.24c1.836-4.896,4.284-9.18,7.345-13.464
			C248.26,95.207,243.977,92.759,241.528,94.595z" />
			<path
				d="M266.62,116.015c-3.672-0.612-6.732,1.836-10.404,2.448c-4.284,1.224-7.956,1.224-12.239,1.836
			c-2.448,0-2.448,3.672,0,4.284c4.283,0.612,8.567,0.612,12.852,0.612s9.18-0.612,11.628-4.284
			C269.68,118.463,268.456,116.015,266.62,116.015z" />
			<path
				d="M294.772,117.851c-1.836-0.612-3.672-0.612-5.509-0.612c-1.224,0-3.06-0.612-4.283-0.612c-3.061,0-2.448,4.284,0,4.284
			c1.836,0,4.896,1.836,7.344,2.448h0.612c0,0,0.611,0.612,1.224,0.612s1.224,0.612,1.836,0.612c0,0,0.612,0,0.612,0.612
			c0.611,0,0.611,0,1.224,0.612c0.612,0,0.612,0,1.224,0c1.225,0,1.225,0,0.612,0c0.612,0,1.836-0.612,1.836-1.224
			C303.952,120.299,297.832,118.463,294.772,117.851z" />
			<path
				d="M299.056,133.151c-1.836,3.672-3.06,7.344-4.283,11.016c-0.612,3.672-1.836,7.956,1.224,10.404
			c1.224,1.224,2.448,1.224,3.672,0c2.448-2.448,1.836-5.508,1.836-8.568c0-4.284,0.612-7.956,1.836-11.628
			C303.952,132.539,300.28,131.315,299.056,133.151z" />
			<path
				d="M286.204,173.543c-3.06,3.06-5.508,6.732-7.956,9.792c-3.06,4.284-6.732,7.957-9.18,12.24
			c-1.836,3.061,1.836,7.345,4.896,4.896c3.672-2.448,5.508-6.732,7.344-10.404c2.448-4.896,4.896-9.18,7.956-13.464
			C292.324,174.767,288.652,171.095,286.204,173.543z" />
			<path
				d="M265.396,212.712c-4.284,3.672-9.792,6.119-14.688,9.18c-3.672,2.448-9.18,4.896-10.404,9.18
			c-0.611,2.448,1.225,4.284,4.284,4.284c4.284-0.612,7.956-6.732,11.017-9.792c3.672-3.672,7.344-7.956,11.016-12.24
			C267.232,213.323,266.008,212.1,265.396,212.712z" />
			<path
				d="M221.332,242.699c-3.672,1.225-7.344,2.448-11.016,3.061c-4.896,1.224-9.792,1.224-14.688,1.836
			c-3.06,0.611-3.06,6.12,0,6.731c9.18,1.836,19.584-3.06,27.54-7.344C225.004,245.76,223.78,242.088,221.332,242.699z" />
			<path
				d="M176.656,240.252c-4.284,0.611-7.344,0.611-11.016-1.225c-3.06-1.836-5.508-4.284-9.18-5.508
			c-2.448-1.224-4.896,1.224-3.672,3.672c4.284,9.792,16.524,10.404,25.092,6.732C180.328,242.699,179.716,239.64,176.656,240.252z" />
			<path
				d="M144.22,215.159c-6.732-7.344-7.344-17.136-11.628-25.092c-1.224-2.449-5.508-1.224-4.896,1.225
			c1.224,9.791,6.732,20.195,14.076,26.928C142.996,220.056,146.056,216.995,144.22,215.159z" />
			<path
				d="M128.919,168.035c-1.224-3.672-1.836-6.732-2.448-11.016c0-3.672,0.612-7.344-0.612-11.016
			c-0.612-2.448-4.284-2.448-4.896,0c-1.224,4.284-0.612,9.18,0,12.852c0.612,3.672,1.836,7.344,3.672,11.016
			C126.472,172.931,129.532,170.483,128.919,168.035z" />
			<path
				d="M122.8,120.911c-1.836-5.508-1.836-11.016-1.836-16.524c0-3.06-0.612-9.792-5.508-6.732
			c-1.224,0.612-1.836,1.836-1.836,3.06c0,7.344,0.612,15.912,4.896,22.032C119.74,125.195,124.023,123.971,122.8,120.911z" />
			<path
				d="M121.576,62.771c-4.284,4.284-3.672,12.24-3.672,18.36c0,3.672,5.508,3.672,5.508,0c0-2.448,0-4.896,0.612-7.344
			c0.612-2.448,2.448-4.896,2.448-7.344C127.083,62.771,124.023,59.711,121.576,62.771z" />
		</g>
	</g>
</svg>
