<svg id="Layer_1" enable-background="new 0 0 56.69 56.69" height="512" viewBox="0 0 56.69 56.69" width="512" xmlns="http://www.w3.org/2000/svg"><path d="m51.058 32.523c-1.336.338-2.706.509-4.072.509-7.474 0-14.061-5.043-16.019-12.264-1.524-5.628-.041-11.521 3.969-15.766l1.692-1.791-2.462.105c-1.498.063-2.984.293-4.418.682-3.94 1.068-7.375 3.271-10.016 6.376-1.215-1.345-2.933-2.129-4.783-2.129-2.766 0-5.216 1.784-6.108 4.344h-.108c-3.028 0-5.492 2.464-5.492 5.493s2.464 5.493 5.492 5.493h6.159c.012 1.735.232 3.458.687 5.133.177.655.422 1.336.71 2.058-2.402 1.884-3.954 4.804-3.954 8.085 0 .363.022.735.068 1.127-1.694 1.464-2.654 3.548-2.654 5.805 0 4.243 3.453 7.695 7.697 7.695h21.734c4.244 0 7.697-3.452 7.697-7.695 0-1.871-.655-3.585-1.759-4.917 2.865-1.659 5.28-4.005 7.035-6.848l1.296-2.099zm-45.817-14.44c0-1.926 1.566-3.493 3.492-3.493h1.678l.166-.795c.431-2.057 2.27-3.549 4.372-3.549 1.397 0 2.685.648 3.528 1.744l-.578.802h1.117.909c2.422 0 4.393 1.971 4.393 4.394 0 2.274-1.705 4.152-3.977 4.37-.112.013-.229.018-.346.019-.024 0-.044.001-.07.001h-4.983-6.209c-1.925 0-3.492-1.567-3.492-3.493zm33.939 33.396h-21.733c-3.142 0-5.697-2.555-5.697-5.695 0-1.819.846-3.488 2.32-4.577l.493-.365-.102-.605c-.085-.503-.126-.956-.126-1.384 0-2.925 1.528-5.494 3.824-6.967.267-.17.541-.323.822-.461.077-.038.153-.076.232-.112.324-.146.655-.276.994-.38.04-.012.082-.02.122-.031.306-.088.617-.155.932-.207.091-.016.182-.03.274-.042.357-.047.717-.079 1.081-.079 2.934 0 5.676 1.582 7.157 4.13l.534.92.886-.591c.8-.535 1.733-.817 2.699-.817 2.687 0 4.873 2.187 4.872 4.904v.917l.913.079c.334.029.656.095.971.18.095.025.187.061.28.091.221.072.437.155.645.253.095.045.188.092.28.142.208.112.408.238.6.374.07.05.143.097.211.149 1.344 1.051 2.212 2.681 2.212 4.48.001 3.139-2.555 5.694-5.696 5.694zm4.376-12.033c-.837-.574-1.796-.993-2.841-1.201-.153-1.252-.647-2.398-1.382-3.351-.013-.016-.022-.033-.035-.049-.089-.112-.185-.218-.279-.324-.04-.046-.077-.095-.119-.139-.061-.064-.128-.124-.191-.187-.081-.08-.16-.163-.246-.239-.017-.015-.034-.027-.05-.041-.75-.656-1.641-1.154-2.623-1.437-.089-.025-.181-.042-.27-.063-.114-.028-.228-.061-.344-.082-.072-.014-.147-.02-.221-.031-.347-.055-.699-.089-1.062-.089-1.021 0-2.017.224-2.928.654-1.919-2.672-5.035-4.296-8.349-4.296-.384 0-.762.025-1.135.066-.114.012-.226.035-.338.052-.26.038-.519.08-.773.137-.131.029-.259.065-.389.1-.234.062-.466.13-.693.208-.131.045-.26.093-.389.143-.228.089-.45.187-.669.29-.078.037-.159.063-.236.103-.198-.521-.356-1.007-.486-1.483-.407-1.506-.618-3.053-.63-4.611h3.088c.197 0 .396-.012.576-.03 3.292-.315 5.775-3.051 5.775-6.36 0-.324-.032-.64-.079-.951-.008-.058-.016-.116-.026-.173-.053-.298-.126-.589-.22-.872-.016-.048-.035-.095-.052-.143-.213-.598-.512-1.154-.883-1.656-.015-.02-.029-.04-.044-.06-.807-1.063-1.937-1.866-3.245-2.261 2.302-2.484 5.21-4.248 8.501-5.14.527-.144 1.063-.262 1.604-.356-3.26 4.522-4.324 10.233-2.838 15.719 2.193 8.09 9.574 13.74 17.948 13.74.694 0 1.39-.04 2.081-.118-1.515 1.86-3.384 3.399-5.508 4.531z"/></svg>