<svg id="Layer_1" enable-background="new 0 0 56.69 56.69" height="512" viewBox="0 0 56.69 56.69" width="512" xmlns="http://www.w3.org/2000/svg"><path d="m28.345 13.053c-8.434 0-15.293 6.86-15.293 15.292 0 8.433 6.859 15.294 15.293 15.294 8.432 0 15.292-6.861 15.292-15.294 0-8.432-6.86-15.292-15.292-15.292zm0 28.587c-7.33 0-13.293-5.965-13.293-13.294s5.963-13.292 13.293-13.292c7.331 0 13.292 5.963 13.292 13.292s-5.961 13.294-13.292 13.294zm-2.824-33.22.016-.024c0-.001-.002-.006-.002-.006 0-.819 2.1-4.27 2.809-4.257.711.008 2.809 3.438 2.809 4.257v.006l.017.024h-.02c-.021 1.266-1.266 2.292-2.807 2.292-1.537 0-2.781-1.026-2.805-2.292zm5.631 39.851h.018l-.016.023v.008c0 .818-2.096 4.266-2.809 4.256-.709-.008-2.807-3.438-2.807-4.256 0-.002 0-.008 0-.008l-.018-.023h.021c.02-1.266 1.264-2.291 2.803-2.291 1.541-.001 2.787 1.025 2.808 2.291zm21.407-19.927c-.008.711-3.438 2.809-4.256 2.809-.004 0-.008 0-.008 0l-.025.016v-.018c-1.264-.021-2.289-1.268-2.289-2.807 0-1.538 1.025-2.784 2.289-2.806v-.018l.025.016h.008c.818.001 4.265 2.096 4.256 2.808zm-41.847.003c0 1.537-1.025 2.783-2.291 2.806v.016l-.025-.014c-.002 0-.004.002-.006.002-.818 0-4.27-2.1-4.258-2.81.008-.711 3.439-2.809 4.258-2.809h.006l.025-.018v.02c1.266.022 2.291 1.266 2.291 2.807zm1.536-12.126c-.578-.579-1.535-4.5-1.025-4.997s4.418.446 4.998 1.025c0 0 .004.002.004.005l.027.006-.012.014c.879.91.725 2.514-.363 3.603-1.088 1.087-2.693 1.244-3.605.364l-.01.01-.008-.026c-.003-.001-.003-.001-.006-.004zm32.195 24.251c.58.576 1.535 4.498 1.023 4.994-.508.498-4.416-.445-4.996-1.021 0-.004-.004-.006-.004-.008l-.027-.008.014-.012c-.881-.912-.727-2.516.361-3.602 1.088-1.088 2.693-1.246 3.605-.367l.01-.01.008.027c.002.001.006.001.006.007zm-3.994-28.201-.01-.01.027-.006c0-.004 0-.005.004-.008.578-.579 4.5-1.533 4.994-1.025.498.508-.445 4.419-1.021 4.997-.002.002-.004.005-.008.006l-.006.026-.014-.013c-.91.88-2.514.726-3.602-.363-1.086-1.087-1.243-2.692-.364-3.604zm-24.207 32.15.01.008-.027.01s0 .006-.004.006c-.576.578-4.498 1.535-4.996 1.021-.498-.506.447-4.416 1.027-4.994 0 0 .002-.006.004-.006l.006-.027.014.012c.91-.879 2.514-.723 3.602.365 1.086 1.085 1.245 2.693.364 3.605zm9.496-20.918h1.938v5.813c0 .535-.1 1.039-.303 1.509-.203.471-.479.881-.832 1.229-.352.35-.762.627-1.232.83-.471.201-.973.303-1.51.303-.535 0-1.039-.102-1.51-.303-.469-.203-.879-.48-1.229-.83-.35-.348-.623-.758-.826-1.229-.201-.47-.305-.974-.305-1.509v-5.813h1.934v5.813c0 .265.049.515.15.751.1.234.24.438.416.614.176.175.381.313.617.415.236.1.486.152.752.152.268 0 .518-.053.752-.152.238-.103.443-.24.621-.415.174-.176.313-.38.414-.614.102-.236.152-.486.152-.751v-5.813zm8.807 0h2.215l-3.18 9.683h-1.939l-3.167-9.683h2.202l1.932 6.46z"/></svg>