<svg id="Layer_1" enable-background="new 0 0 56.69 56.69" height="512" viewBox="0 0 56.69 56.69" width="512" xmlns="http://www.w3.org/2000/svg"><path d="m37.134 30.773c-.153 0-.303-.003-.454-.01l-31.382.01c-.553 0-1-.447-1-1 0-.552.447-1 1-1l31.426-.009c.165.006.287.009.411.009 4.708 0 8.538-3.83 8.538-8.538 0-4.707-3.83-8.537-8.538-8.537-4.707 0-8.537 3.83-8.537 8.537 0 1.158.228 2.28.675 3.334.217.509-.021 1.096-.528 1.312-.509.218-1.097-.021-1.312-.528-.554-1.303-.835-2.688-.835-4.117 0-5.81 4.727-10.537 10.537-10.537s10.538 4.728 10.538 10.537c-.001 5.81-4.729 10.537-10.539 10.537zm15.26 8.969c0-3.998-3.252-7.25-7.25-7.25-.105 0-.209.002-.27.006l-39.577-.006c-.552 0-1 .447-1 1 0 .552.448 1 1 1l39.62.005.227-.005c2.895 0 5.25 2.355 5.25 5.25s-2.355 5.25-5.25 5.25-5.25-2.355-5.25-5.25c0-.713.14-1.402.415-2.05.217-.508-.021-1.096-.528-1.312-.508-.218-1.095.019-1.312.528-.382.896-.575 1.85-.575 2.833 0 3.998 3.252 7.25 7.25 7.25s7.25-3.251 7.25-7.249zm-47.097-12.875 11.721-.004.229.004c3.197 0 5.799-2.602 5.799-5.799s-2.602-5.799-5.799-5.799c-3.198 0-5.8 2.602-5.8 5.799 0 .786.154 1.549.46 2.267.216.508.805.742 1.312.528.508-.217.745-.804.528-1.312-.199-.469-.3-.967-.3-1.483 0-2.095 1.704-3.799 3.8-3.799 2.095 0 3.799 1.704 3.799 3.799s-1.704 3.799-3.799 3.799l-.207-.004-11.744.004c-.552 0-1 .448-1 1 .001.553.449 1 1.001 1zm15.167 10.667c0-.553-.447-1-1-1h-14.167c-.552 0-1 .447-1 1s.448 1 1 1h14.167c.553 0 1-.447 1-1z"/></svg>