<svg id="Layer_1" enable-background="new 0 0 56.69 56.69" height="512" viewBox="0 0 56.69 56.69" width="512" xmlns="http://www.w3.org/2000/svg"><path d="m40.992 52.829c-4.387 0-7.955-3.568-7.955-7.955 0-1.077.213-2.123.631-3.107.217-.508.803-.746 1.313-.528.508.216.744.803.527 1.312-.313.735-.471 1.518-.471 2.324 0 3.283 2.672 5.955 5.955 5.955s5.955-2.672 5.955-5.955-2.672-5.954-5.955-5.954c-.086 0-.168.002-.25.006l-30.297-.007c-.553 0-1-.448-1-1 0-.553.448-1 1-1l30.249.007c.066-.005.18-.007.299-.007 4.387 0 7.955 3.568 7.955 7.954-.001 4.387-3.569 7.955-7.956 7.955zm-14-7.353c0-2.48-2.019-4.498-4.5-4.498l-.15.002-11.896-.002c-.552 0-1 .447-1 1 0 .552.447 1 1 1l11.921.002.126-.002c1.379 0 2.5 1.121 2.5 2.498 0 1.378-1.121 2.499-2.5 2.499-1.377 0-2.498-1.121-2.498-2.499 0-.553-.447-1-1-1s-1 .447-1 1c0 2.48 2.018 4.499 4.498 4.499s4.499-2.019 4.499-4.499zm24.188-20.461c0-2.778-1.199-5.338-3.313-7.116.066-.522.1-1.017.1-1.501 0-6.913-5.625-12.537-12.539-12.537-4.109 0-7.97 2.048-10.3 5.406-1.149-.578-2.418-.88-3.72-.88-4.283 0-7.819 3.26-8.256 7.46-4.413.793-7.642 4.591-7.642 9.167 0 5.142 4.184 9.324 9.325 9.324h27.02c5.141.001 9.325-4.182 9.325-9.323zm-26.279-13.57.885.59.534-.92c1.885-3.241 5.374-5.254 9.108-5.254 5.811 0 10.539 4.727 10.539 10.537 0 .55-.053 1.125-.16 1.76l-.104.606.496.365c1.895 1.4 2.98 3.545 2.98 5.886 0 4.039-3.285 7.324-7.324 7.324h-27.02c-4.039 0-7.325-3.285-7.325-7.324 0-3.825 2.873-6.958 6.684-7.29l.911-.116v-.917c0-3.477 2.827-6.305 6.303-6.305 1.248.001 2.456.366 3.493 1.058z"/></svg>