<svg id="Layer_1" enable-background="new 0 0 56.69 56.69" height="512" viewBox="0 0 56.69 56.69" width="512" xmlns="http://www.w3.org/2000/svg"><path d="m43.382 38.811h-36.25c-.553 0-1-.447-1-1s.447-1 1-1h36.25c.553 0 1 .447 1 1s-.447 1-1 1zm7.75 3.642c0-.553-.447-1-1-1h-37.5c-.553 0-1 .447-1 1s.447 1 1 1h37.5c.553 0 1-.447 1-1zm-11.625 4.643c0-.553-.447-1-1-1h-29.25c-.553 0-1 .447-1 1s.447 1 1 1h29.25c.553 0 1-.448 1-1zm7.625 4.642c0-.553-.447-1-1-1h-29.5c-.553 0-1 .447-1 1s.447 1 1 1h29.5c.553 0 1-.447 1-1zm-8.298-34.436 4.905-1.394-4.872-1.501-1.394-4.902-1.5 4.87-4.904 1.393 4.872 1.502 1.393 4.903zm8.402 7.72 3.408-1.114-3.467-.922-1.116-3.407-.918 3.465-3.409 1.116 3.467.92 1.114 3.407zm-22.807-18.383c-.092.024-.184.048-.275.073-11.304 3.064-18.215 14.032-16.285 25.401h16.497c-1.179-1.941-2.075-4.036-2.678-6.258-1.797-6.635-.763-13.521 2.741-19.216m4.571-2.686c-5.208 5.513-7.51 13.523-5.381 21.379.909 3.354 2.54 6.313 4.666 8.782h-22.047c-3.078-12.83 4.576-25.858 17.392-29.332 1.792-.486 3.591-.753 5.37-.829z"/></svg>