<svg id="Layer_1" enable-background="new 0 0 56.69 56.69" height="512" viewBox="0 0 56.69 56.69" width="512" xmlns="http://www.w3.org/2000/svg"><path d="m44.592 24.116c3.504 0 6.484 1.014 7.639 2.436-1.565-11.366-11.041-20.178-22.693-20.749v-.604c0-.552-.447-1-1-1-.552 0-1 .448-1 1v.583c-11.829.393-21.497 9.278-23.078 20.768 1.154-1.421 4.133-2.434 7.636-2.434 4.084 0 7.459 1.376 8.052 3.173v.001c.04.121.068.244.082.369.206-1.849 3.333-3.341 7.309-3.523v17.522h-.459c-.598 0-1.083.485-1.083 1.083s.485 1.083 1.083 1.083h.459v3.084c0 3.078 2.505 5.583 5.583 5.583s5.583-2.505 5.583-5.583c0-.553-.447-1-1-1s-1 .447-1 1c0 1.976-1.607 3.583-3.583 3.583s-3.583-1.607-3.583-3.583v-3.084h.375c.598 0 1.083-.485 1.083-1.083s-.485-1.083-1.083-1.083h-.375v-17.499c3.686.244 6.574 1.612 6.94 3.325.015-.069.041-.136.064-.203v.001c.6-1.793 3.97-3.166 8.049-3.166zm-8.096.148c-1.987-1.467-5.142-2.147-8.134-2.147-3.435 0-6.326.82-8.133 2.175-2.005-1.487-5.191-2.175-8.134-2.175-1.686 0-3.275.207-4.673.589 2.933-8.526 10.961-14.643 20.2-14.946 0 0 2.093-.096 5.794.583 6.663 1.398 13.39 7.208 15.852 14.363-1.398-.382-2.989-.59-4.676-.59-2.921 0-6.087.679-8.096 2.148z"/></svg>