<svg id="Layer_1" enable-background="new 0 0 56.69 56.69" height="512" viewBox="0 0 56.69 56.69" width="512" xmlns="http://www.w3.org/2000/svg"><path d="m53.073 10.852v2h-7.75v-2zm-3.25 4.359h-4.5v2h4.5zm-4.5 6.36h7.75v-2h-7.75zm4.5 2.359h-4.5v2h4.5zm-4.5 6.359h7.75v-2h-7.75zm1.208 11.396c0 5.583-4.542 10.125-10.125 10.125-2.363 0-4.535-.82-6.261-2.183-.664 1.287-1.821 2.938-2.314 2.93-.71-.008-2.808-3.438-2.808-4.254 0-.004 0-.008 0-.008l-.017-.025h.021c.018-1.108.974-2.03 2.245-2.243-.372-.779-.651-1.611-.813-2.485-7.789-.698-13.922-7.229-13.922-15.195 0-8.432 6.86-15.292 15.294-15.292 1.19 0 2.339.156 3.45.417v-3.464c0-2.826 2.299-5.125 5.125-5.125s5.125 2.299 5.125 5.125v22.952c3.1 1.817 5 5.106 5 8.725zm-15.25-8.725v-17.436c-1.102-.298-2.255-.471-3.45-.471-7.33 0-13.294 5.963-13.294 13.292 0 6.806 5.15 12.404 11.754 13.172.059-3.55 1.938-6.767 4.99-8.557zm13.25 8.725c0-3.07-1.706-5.845-4.453-7.24l-.547-.278v-24.16c0-1.724-1.402-3.125-3.125-3.125s-3.125 1.401-3.125 3.125v24.16l-.547.278c-2.747 1.396-4.454 4.171-4.454 7.24 0 4.48 3.645 8.125 8.125 8.125s8.126-3.645 8.126-8.125zm-1.666 0c0 3.561-2.897 6.458-6.459 6.458-3.561 0-6.458-2.897-6.458-6.458 0-2.919 1.972-5.482 4.796-6.233l.371-.099v-22.23h2.583v22.229l.371.1c2.825.751 4.796 3.315 4.796 6.233zm-6.139-4.305c-.154-.684-.842-1.134-1.543-.974-2.448.554-4.158 2.695-4.158 5.207 0 .711.579 1.29 1.29 1.29s1.29-.579 1.29-1.29c0-1.277.902-2.409 2.147-2.69.692-.159 1.13-.851.974-1.543zm-11.702-28.958c.023 1.266 1.268 2.292 2.805 2.292 1.542 0 2.787-1.026 2.807-2.292h.021l-.018-.024v-.006c0-.818-2.098-4.25-2.81-4.258-.709-.012-2.808 3.439-2.808 4.258l.001.006-.015.024zm-17.117 17.12v-.019l-.026.017c-.001 0-.004 0-.006 0-.818 0-4.25 2.098-4.258 2.808-.011.708 3.439 2.808 4.258 2.808.002 0 .005-.002.006-.002l.025.014v-.016c1.266-.023 2.291-1.27 2.291-2.804.001-1.54-1.025-2.785-2.29-2.806zm3.833-9.315.007.026.01-.01c.912.879 2.518.723 3.605-.365s1.243-2.692.363-3.602l.013-.014-.027-.006c-.001-.004-.004-.006-.005-.006-.579-.578-4.488-1.521-4.997-1.025-.51.496.446 4.418 1.024 4.997.004.004.004.004.007.005zm3.622 24.587c-1.088-1.088-2.691-1.242-3.602-.363l-.014-.012-.006.027c-.002 0-.004.004-.004.004-.58.58-1.524 4.488-1.027 4.994.498.516 4.42-.441 4.997-1.021.003 0 .004-.004.004-.004l.027-.01-.01-.008c.881-.911.723-2.519-.365-3.607z"/></svg>