<svg id="Layer_1" enable-background="new 0 0 56.69 56.69" height="512" viewBox="0 0 56.69 56.69" width="512" xmlns="http://www.w3.org/2000/svg"><path d="m53.474 10.852v2h-7.75v-2zm-3.25 4.359h-4.5v2h4.5zm-4.5 6.359h7.75v-2h-7.75zm4.5 2.36h-4.5v2h4.5zm-4.5 6.359h7.75v-2h-7.75zm1.208 11.396c0 5.583-4.542 10.125-10.125 10.125s-10.125-4.542-10.125-10.125c0-2.943 1.273-5.654 3.412-7.547l-2.189-3.792-6.856 11.876 2.047 7.645c.144.533-.173 1.082-.707 1.225-.086.023-.174.034-.259.034-.442 0-.846-.294-.966-.741l-1.529-5.712-2.707 4.688c-.186.32-.521.5-.867.5-.17 0-.342-.043-.499-.134-.479-.276-.642-.888-.366-1.366l2.644-4.578-5.54 1.484c-.086.023-.174.034-.26.034-.441 0-.846-.294-.965-.741-.143-.533.174-1.082.707-1.225l7.472-2.002 6.921-11.987h-13.717l-5.596 5.594c-.195.195-.451.293-.707.293s-.512-.098-.707-.293c-.391-.391-.391-1.023 0-1.414l4.182-4.182h-5.413c-.552 0-1-.448-1-.999 0-.552.448-1 1-1h5.287l-4.056-4.055c-.391-.391-.391-1.023 0-1.414s1.023-.391 1.414 0l5.47 5.47h13.84l-6.857-11.877-7.642-2.048c-.534-.143-.851-.691-.707-1.225.143-.533.693-.851 1.225-.707l5.71 1.53-2.706-4.686c-.275-.479-.111-1.09.367-1.366.477-.276 1.089-.112 1.365.366l2.645 4.58 1.484-5.543c.143-.533.688-.853 1.225-.707.533.143.85.691.707 1.225l-2.002 7.475 6.919 11.983 3.777-6.542v-9.797c0-2.826 2.299-5.125 5.125-5.125s5.125 2.299 5.125 5.125v22.953c3.099 1.817 5 5.106 5 8.725zm-17.295-14.34h2.045v-3.542zm2.045 5.543v-3.543h-2.046zm13.25 8.797c0-3.07-1.706-5.845-4.453-7.24l-.547-.278v-24.16c0-1.724-1.402-3.125-3.125-3.125s-3.125 1.401-3.125 3.125v24.16l-.547.278c-2.747 1.396-4.453 4.171-4.453 7.24 0 4.48 3.645 8.125 8.125 8.125s8.125-3.645 8.125-8.125zm-1.666 0c0 3.561-2.897 6.458-6.459 6.458-3.561 0-6.458-2.897-6.458-6.458 0-2.919 1.972-5.482 4.796-6.233l.371-.099v-5.835h2.583v5.834l.371.1c2.824.751 4.796 3.315 4.796 6.233zm-6.14-4.305c-.154-.684-.842-1.134-1.543-.974-2.448.554-4.158 2.695-4.158 5.207 0 .711.579 1.29 1.29 1.29s1.29-.579 1.29-1.29c0-1.277.902-2.409 2.147-2.69.693-.159 1.13-.851.974-1.543z"/></svg>