<svg id="Layer_1" enable-background="new 0 0 56.69 56.69" height="512" viewBox="0 0 56.69 56.69" width="512" xmlns="http://www.w3.org/2000/svg"><path d="m49.98 19.644c.078-.601.117-1.168.117-1.72 0-7.641-6.217-13.857-13.859-13.857-4.576 0-8.874 2.298-11.442 6.058-1.289-.665-2.717-1.013-4.183-1.013-4.743 0-8.654 3.633-9.096 8.297-4.907.839-8.507 5.045-8.507 10.117 0 5.667 4.611 10.276 10.278 10.276h11.804l-3.009 5.955h6.35l-4.171 8.867 11.804-11.066-6.305.006 2.182-3.762h11.459c5.666 0 10.277-4.609 10.277-10.276.001-3.082-1.339-5.922-3.699-7.882zm-6.578 16.159h-30.113c-4.564 0-8.278-3.713-8.278-8.276 0-4.323 3.247-7.864 7.554-8.238l.911-.12v-.917c0-3.938 3.202-7.141 7.139-7.141 1.413 0 2.781.414 3.956 1.198l.885.59.534-.92c2.121-3.647 6.048-5.913 10.25-5.913 6.539 0 11.859 5.319 11.859 11.857 0 .618-.059 1.266-.18 1.981l-.102.606.494.365c2.141 1.582 3.369 4.006 3.369 6.651 0 4.564-3.713 8.277-8.278 8.277zm-20.058 11.371-.003 1c-.002.551-.449.996-1 .996-.001 0-.002 0-.003 0-.553-.002-.999-.449-.997-1.002l.003-1c.002-.551.449-.998 1-.998h.003c.553.002.999.451.997 1.004zm13.453 0-.004 1c-.002.551-.449.996-1 .996h-.002c-.553-.002-1-.449-.998-1.002l.004-1c.002-.551.449-.998 1-.998h.002c.553.002 1 .451.998 1.004zm-20.167-6.014-.01 3c-.002.551-.449.996-1 .996-.001 0-.002 0-.003 0-.553-.002-.999-.451-.997-1.002l.01-3c.002-.553.449-.998 1-.998h.003c.553.002.999.451.997 1.004zm-.018 6-.008 2.461c-.002.551-.449.996-1 .996-.001 0-.002 0-.003 0-.553-.002-.999-.451-.997-1.002l.008-2.461c.002-.553.449-.998 1-.998h.003c.552.002.999.451.997 1.004zm26.904 0-.008 2.461c-.002.551-.449.996-1 .996-.002 0-.002 0-.004 0-.553-.002-.998-.451-.996-1.002l.008-2.461c.002-.553.449-.998 1-.998h.002c.552.002 1 .451.998 1.004zm.017-6-.01 3c-.002.551-.449.996-1 .996h-.002c-.553-.002-1-.451-.998-1.002l.01-3c.002-.553.449-.998 1-.998h.004c.553.002.998.451.996 1.004z"/></svg>